<svg width="228" height="119" viewBox="0 0 228 119" fill="none" xmlns="http://www.w3.org/2000/svg">
<rect y="0.000244141" width="228" height="118" rx="6" fill="#8A1538"/>
<path d="M120.624 51.887C120.612 51.9388 120.583 52.0877 120.542 52.2341C120.178 53.5517 120.107 53.5762 118.762 53.6128C116.745 53.6681 114.729 53.795 112.711 53.8464C110.164 53.912 107.611 53.8656 105.068 53.9856C100.996 54.1755 96.9119 53.7616 92.8471 54.272C92.2481 54.3468 91.6295 54.2389 91.0203 54.2521C88.052 54.3143 85.0856 54.405 82.1175 54.4547C78.4665 54.5146 74.8234 54.9386 71.1598 54.5912C70.0005 54.4811 68.8074 54.7731 67.6294 54.781C64.1241 54.8067 60.6186 54.779 57.1137 54.7807C54.4508 54.7815 51.788 54.7975 49.1252 54.8021C48.2119 54.8036 47.2952 54.8344 46.3854 54.7787C44.2956 54.653 42.2073 54.5037 40.123 54.3227C38.9112 54.218 37.7046 54.0403 36.4968 53.885C35.9495 53.8146 35.6184 53.4657 35.7609 52.9536C36.2956 51.0343 35.9855 49.0896 35.967 47.1602C35.9412 44.5347 35.7688 41.9116 35.6958 39.2871C35.6422 37.3447 35.6941 35.3979 35.6147 33.4572C35.5472 31.8259 35.3065 30.2009 35.239 28.5697C35.1724 26.9742 35.2268 25.3731 35.2336 23.774C35.2341 23.546 35.3385 23.2951 35.2758 23.0931C34.95 22.0486 35.8297 21.4617 36.1712 20.6768C36.2507 20.4938 36.4882 20.3503 36.6836 20.25C39.1551 18.9816 41.6346 17.731 44.1035 16.4591C44.5585 16.2252 45.0522 16.0547 45.0452 15.3272C45.0396 14.8562 45.5708 14.8909 45.9593 14.9278C47.6247 15.0871 49.2879 15.28 50.957 15.3974C54.8309 15.6722 58.7086 15.9128 62.5848 16.1617C63.6499 16.2306 64.7164 16.2683 65.7807 16.3432C68.5896 16.5415 71.3949 16.835 74.2072 16.9381C77.5931 17.0632 80.9837 17.0086 84.3727 17.0738C86.4665 17.1147 88.5583 17.2804 90.6513 17.3083C94.0787 17.3532 97.5079 17.324 100.936 17.3412C102.718 17.3502 104.5 17.3907 106.281 17.4134C108.448 17.4403 110.615 17.4558 112.782 17.4892C114.718 17.5198 116.653 17.5931 118.589 17.602C119.729 17.6071 120.874 17.455 122.01 17.508C122.875 17.549 123.732 17.7925 124.589 17.9613C125.126 18.0675 125.311 18.3925 125.283 18.9527C125.215 20.3577 125.138 21.7701 125.197 23.1729C125.246 24.3085 125.462 25.4398 125.651 26.5658C126.196 29.8267 126.834 33.074 127.296 36.347C127.556 38.1875 127.538 40.0657 127.649 41.9267C127.668 42.2309 127.726 42.533 127.736 42.8379C127.753 43.3393 127.74 43.7776 127.152 44.0641C126.771 44.2502 126.508 44.6945 126.219 45.0441C124.618 46.9801 122.897 48.8247 121.684 51.0589C121.517 51.3678 121.089 51.5358 120.624 51.887ZM36.327 22.682C36.146 25.6918 36.3348 28.7261 36.5556 31.7595C36.6582 33.1652 36.7258 34.5733 36.7798 35.9807C36.8246 37.1582 36.8037 38.3393 36.8539 39.516C36.9191 41.0349 37.0628 42.5506 37.1053 44.0695C37.172 46.5056 37.2015 48.9434 37.2096 51.3804C37.213 52.4263 37.5154 52.5895 38.298 52.6729C40.6802 52.9269 43.0728 53.0841 45.4616 53.2604C46.213 53.3157 46.9691 53.3067 47.7226 53.3361C48.3311 53.3595 48.9397 53.4248 49.5481 53.4215C51.5674 53.4073 53.5878 53.3669 55.6064 53.3436C56.4055 53.3348 57.2043 53.331 58.0031 53.3462C59.45 53.3725 60.8977 53.4613 62.3441 53.4393C65.1195 53.397 67.8943 53.276 70.6689 53.2246C73.2558 53.1772 75.8441 53.2178 78.4306 53.1449C81.4789 53.0596 84.525 52.8849 87.5724 52.7676C88.6345 52.7265 89.6994 52.7307 90.7632 52.7345C91.5989 52.7378 92.4359 52.7986 93.2712 52.7878C95.6648 52.7577 98.0582 52.701 100.452 52.6621C102.316 52.6309 104.18 52.6187 106.043 52.5806C107.642 52.5482 109.241 52.4968 110.841 52.4454C113.123 52.3711 115.407 52.2907 117.688 52.2072C117.839 52.2011 117.987 52.1359 118.137 52.1222C118.762 52.0659 118.986 51.696 118.96 51.1105C118.931 50.4633 118.88 49.8151 118.898 49.1693C118.964 46.6567 119.131 44.1442 119.118 41.6333C119.095 37.0677 118.983 32.503 118.874 27.9384C118.858 27.2204 118.704 26.5001 118.549 25.7935C118.45 25.3384 118.208 24.9177 117.67 24.8503C116.701 24.7293 115.728 24.5463 114.756 24.5438C113.048 24.5403 111.34 24.6876 109.631 24.7077C107.202 24.7376 104.773 24.7042 102.344 24.7085C99.4145 24.7138 96.4844 24.7405 93.5559 24.7398C92.4936 24.739 91.4301 24.6884 90.3674 24.6545C87.2127 24.555 84.059 24.3798 80.9047 24.3755C78.6298 24.3725 76.3619 24.5252 74.0818 24.3151C71.8867 24.1128 69.6749 24.0761 67.4699 23.977C65.6931 23.8976 63.9149 23.8189 62.1375 23.7646C61.1159 23.7329 60.0911 23.7876 59.0714 23.735C57.6442 23.6606 56.2206 23.5215 54.7956 23.4137C54.7214 23.4082 54.6457 23.4453 54.57 23.4482C52.6818 23.5184 50.7931 23.582 48.9057 23.6575C48.0347 23.692 47.1641 23.7482 46.2947 23.7933C45.9566 23.811 45.6115 23.8733 45.2805 23.8312C42.3425 23.4673 39.4056 23.0809 36.327 22.682ZM38.2157 21.1894C38.6833 21.3438 38.9926 21.5131 39.314 21.5419C42.0026 21.7817 44.6909 22.0264 47.3836 22.2079C50.7236 22.4332 54.0741 22.0547 57.4245 22.4558C59.6065 22.7172 61.8354 22.7672 64.0342 22.6779C67.2765 22.5464 70.493 22.8235 73.7197 22.9734C76.5333 23.1035 79.359 23.2275 82.167 23.1022C84.4975 22.998 86.8018 23.1959 89.1183 23.2418C89.8391 23.2553 90.5587 23.38 91.2798 23.3886C93.5612 23.4141 95.8444 23.3881 98.1246 23.4208C100.176 23.4503 102.228 23.5419 104.281 23.5843C107.321 23.646 110.363 23.6716 113.403 23.7459C114.46 23.7714 115.514 23.9203 116.571 23.9713C117.651 24.0238 118.707 23.969 119.478 23.0229C120.438 21.8437 121.434 20.693 122.378 19.5009C122.743 19.0395 122.624 18.6896 122.031 18.603C121.173 18.4767 120.294 18.4884 119.424 18.4509C119.009 18.4331 118.593 18.4541 118.178 18.4275C117.31 18.3717 116.443 18.2352 115.578 18.2449C114.59 18.2546 113.603 18.4562 112.617 18.4491C110.378 18.4338 108.138 18.3436 105.898 18.2811C105.219 18.2621 104.538 18.1818 103.862 18.2172C100.746 18.383 97.6327 18.5127 94.5124 18.2787C93.0782 18.1716 91.6355 18.1251 90.1971 18.1232C87.5347 18.119 84.8728 18.1975 82.2111 18.1872C79.6233 18.176 77.0338 18.0159 74.4481 18.0713C72.1151 18.1214 69.8154 17.8287 67.5028 17.6598C65.7545 17.5327 64.0033 17.2069 62.2639 17.2679C59.6265 17.3607 57.0182 17.1158 54.4043 16.9298C52.2447 16.7773 50.0995 16.4278 47.9392 16.2813C47.1776 16.2302 46.2999 16.3462 45.6335 16.6904C43.3426 17.8765 41.1199 19.1903 38.8822 20.4763C38.6496 20.6125 38.4947 20.886 38.2157 21.1894ZM120.577 49.8555C121.328 49.6775 121.586 49.111 121.951 48.6253C123.294 46.8324 124.681 45.0725 126.034 43.2864C126.18 43.0925 126.277 42.8113 126.282 42.5684C126.302 41.6176 126.335 40.66 126.254 39.7141C126.051 37.3648 125.838 35.0148 125.535 32.6769C125.284 30.7545 124.872 28.8559 124.579 26.9386C124.288 25.0243 123.851 23.1178 124.102 21.1555C124.13 20.9316 124.117 20.6952 124.085 20.4714C124.019 20.0261 123.738 19.8727 123.364 20.108C123.077 20.2885 122.812 20.5242 122.588 20.7799C121.911 21.5528 121.271 22.3584 120.591 23.1279C119.915 23.8924 119.711 24.7672 119.76 25.7722C119.98 30.3243 120.24 34.8771 120.336 39.4326C120.396 42.2392 120.169 45.0523 120.111 47.8634C120.099 48.5274 120 49.2518 120.577 49.8555Z" fill="white"/>
<path d="M90.7072 43.7481C90.8207 44.0227 90.933 44.2969 91.0481 44.5707C91.5529 45.7758 92.3074 46.655 93.7439 46.6665C94.3485 46.6708 94.9656 46.7833 95.5559 46.7005C97.5912 46.4114 98.756 45.1071 99.383 43.2386C99.853 41.8381 99.8703 40.4491 99.0682 39.1649C98.3021 37.937 97.0175 37.381 95.727 36.9309C95.3894 36.8131 94.8655 37.0826 94.4838 37.2824C94.0892 37.4907 93.7776 37.8506 93.4057 38.1094C92.7848 38.5422 92.1813 38.4 91.6778 37.6899C92.4919 36.7719 93.1955 35.716 94.5314 35.4179C95.1953 35.2694 95.4624 34.7984 95.4727 34.1603C95.5269 31.0122 93.2575 28.531 89.5841 29.4116C88.5142 29.6682 87.5848 31.0008 87.4705 32.2879C87.2957 34.2576 87.1319 36.2283 86.9426 38.1957C86.7456 40.2404 86.5097 42.2799 86.3191 44.3242C86.274 44.8102 86.3447 45.3064 86.356 45.7983C86.3656 46.211 86.3679 46.6226 86.3735 47.0973C85.8338 47.1613 85.3675 47.2178 84.7513 47.2908C84.7386 46.834 84.6784 46.4325 84.7234 46.0428C84.9754 43.8895 85.2848 41.7424 85.5158 39.5872C85.8436 36.5206 86.1299 33.4492 86.4123 30.3778C86.4843 29.5952 86.8016 29.099 87.612 28.9367C87.9378 28.8718 88.2743 28.7281 88.5448 28.5347C89.1995 28.0649 89.9307 27.8854 90.7052 27.9281C92.763 28.0394 94.6487 28.5301 95.706 30.5465C96.3017 31.6839 96.5051 32.9188 96.3729 34.1874C96.2561 35.309 96.3099 35.4535 97.2507 36.0177C98.224 36.6027 99.2675 37.1057 99.8721 38.1548C100.451 39.1587 100.961 40.2031 100.747 41.3878C100.567 42.3919 100.337 43.414 99.9325 44.343C99.1238 46.2048 97.5438 47.1273 95.6 47.4733C95.0772 47.5669 94.5427 47.6111 94.0113 47.6347C92.0531 47.721 90.9909 46.4182 90.0438 44.9935C89.6648 44.4247 89.8596 44.1073 90.7072 43.7481Z" fill="white"/>
<path d="M74.9768 38.437C75.2529 38.8565 75.3837 39.1786 75.6158 39.3896C76.848 40.5153 77.6137 41.9751 78.5203 43.3382C79.1497 44.2852 79.8376 45.1932 80.4799 46.1317C80.7074 46.4642 80.8764 46.8357 81.1186 47.2732C80.6321 47.5487 80.2489 47.7646 79.7962 48.0221C79.5707 47.7296 79.3641 47.5143 79.2184 47.2646C78.2404 45.5876 77.3001 43.8888 76.2967 42.2275C75.5159 40.9364 74.3659 40.0915 72.9024 39.678C72.3247 39.5152 71.7587 39.3055 71.1597 39.1077C70.5114 40.3416 70.7704 41.5809 70.6825 42.7729C70.6212 43.5996 70.5524 44.4263 70.511 45.2546C70.4901 45.6711 70.5321 46.0894 70.526 46.5071C70.5207 46.9149 70.4914 47.3224 70.4689 47.8132C69.9728 47.8371 69.5686 47.8557 69.0379 47.8809C69.0107 47.437 68.9358 47.0687 68.9767 46.7145C69.3063 43.8805 69.581 41.0361 70.0244 38.2182C70.4945 35.2353 70.6199 32.2401 70.7004 29.2352C70.7245 28.3518 70.9182 28.076 71.7811 27.8664C73.7299 27.394 75.535 27.4258 77.3224 28.698C78.618 29.6202 79.4834 30.6781 79.9608 32.1353C80.3073 33.1942 80.1905 34.17 79.7706 35.2308C79.0452 37.063 77.6157 37.7943 75.8716 38.1961C75.6525 38.2454 75.4364 38.3123 74.9768 38.437ZM71.2595 37.5495C72.2485 37.895 73.1891 38.099 74.1876 37.7707C75.1606 37.4503 76.1566 37.1947 77.1204 36.8523C77.5007 36.718 77.9414 36.5008 78.1514 36.1873C78.8144 35.1928 79.2602 34.1114 78.992 32.8576C78.4274 30.2166 75.1367 28.1831 72.4951 28.8413C71.9496 28.9769 71.6719 29.2111 71.6383 29.839C71.5151 32.1515 71.3184 34.4601 71.164 36.7712C71.1472 37.0217 71.2249 37.2819 71.2595 37.5495Z" fill="white"/>
<path d="M58.6634 28.8099C58.5843 30.9392 58.1899 32.9594 58.3338 35.0773C60.1867 35.168 61.9265 35.2403 63.6655 35.3453C64.3083 35.3838 64.9524 35.4646 65.5836 35.588C65.9752 35.6653 66.3159 35.9084 66.1935 36.3904C66.0829 36.8293 65.741 36.9624 65.306 36.9126C64.1715 36.7853 63.038 36.6469 61.9009 36.5542C61.0292 36.4832 60.1531 36.4603 59.2781 36.4491C58.3335 36.4377 58.0121 36.6815 57.8589 37.5641C57.5791 39.1758 57.3077 40.7889 57.0847 42.4092C56.8729 43.9533 56.9897 44.0603 58.5002 44.1241C58.8429 44.1384 59.1917 44.1305 59.5254 44.1989C60.6648 44.4305 61.7855 44.3732 62.9279 44.1621C63.4682 44.0615 64.059 44.1539 64.6113 44.2513C64.8006 44.2846 65.0681 44.5999 65.0674 44.7861C65.0669 44.9798 64.8166 45.2155 64.619 45.3531C64.4427 45.4762 64.1909 45.5439 63.9731 45.543C61.8509 45.5385 59.7269 45.5662 57.609 45.4642C56.9224 45.4315 56.238 45.0775 55.5861 44.7938C55.4234 44.7223 55.2841 44.3416 55.312 44.1264C55.4975 42.6928 55.6426 41.2434 55.969 39.8398C56.587 37.1885 56.8386 34.5063 56.9526 31.799C56.9833 31.0763 57.1153 30.3579 57.1383 29.6352C57.1733 28.5538 57.9466 28.0547 58.7193 27.577C58.9504 27.4339 59.3079 27.4569 59.6057 27.4614C60.821 27.4784 62.0379 27.4986 63.2526 27.556C64.0492 27.5933 64.8463 27.6675 65.6377 27.7742C66.1294 27.8401 66.5713 28.0532 66.8678 28.5454C66.5086 29.0304 66.0405 29.104 65.5371 29.0735C64.1735 28.991 62.8121 28.9054 61.4489 28.8141C60.7257 28.7656 60.0055 28.6888 59.2824 28.6517C59.1069 28.6419 58.9236 28.7399 58.6634 28.8099Z" fill="white"/>
<path d="M40.0971 27.5235C40.5808 27.3219 40.8527 27.2088 41.1428 27.0865C41.2742 27.23 41.431 27.3236 41.4629 27.4496C41.6943 28.3311 41.8982 29.2187 42.1144 30.1041C42.1941 30.4347 42.2317 30.7856 42.3711 31.089C43.8967 34.3947 44.9486 37.8369 45.5213 41.4366C45.6554 42.2784 45.8826 43.1534 46.5973 43.842C47.2915 43.3675 47.634 42.6451 48.0353 41.9788C48.3691 41.4246 48.6343 40.8288 48.9803 40.2837C50.0897 38.5364 50.8583 36.631 51.5979 34.7134C52.3922 32.6529 53.1706 30.5871 53.9616 28.5254C54.1422 28.0551 54.3881 27.6405 55.0806 27.4748C55.161 27.7651 55.3327 28.0475 55.2847 28.2852C55.1965 28.7252 55.0535 29.189 54.8036 29.554C53.3382 31.6846 52.5598 34.127 51.7348 36.5222C50.9755 38.7261 49.9953 40.8116 48.9737 42.8883C48.4699 43.9113 47.9234 44.9138 47.3978 45.9219C46.9202 45.9823 46.4204 46.0443 45.8343 46.1183C45.0977 44.1673 44.0153 42.2846 43.7383 40.0935C43.42 37.5782 42.4318 35.2525 41.622 32.8741C41.0346 31.1549 40.6183 29.3781 40.0971 27.5235Z" fill="white"/>
<path d="M104.108 45.3922C104.874 44.945 105.361 44.8979 105.759 45.4263C106.591 46.5288 107.825 46.6205 109.038 46.732C109.32 46.7578 109.678 46.6746 109.902 46.5087C111.311 45.4675 112.428 44.254 112.693 42.3838C112.944 40.6055 112.027 39.4218 110.957 38.2468C110.179 37.3928 109.115 37.0338 108.102 36.6259C106.403 35.942 105.329 34.6278 104.457 33.1378C103.574 31.6292 104.308 30.3045 105.281 29.1789C106.239 28.0701 107.478 27.4483 109.031 27.8242C109.963 28.0496 110.402 28.5672 110.347 29.5923C110.047 29.4451 109.785 29.3499 109.559 29.2017C108.648 28.6069 107.759 28.6582 106.901 29.2866C106.213 29.7907 105.737 30.4374 105.486 31.2841C105.12 32.5199 105.847 33.3379 106.511 34.1557C107.341 35.1779 108.439 35.8128 109.683 36.297C111.686 37.0763 113.302 38.3768 113.597 40.6588C113.873 42.7939 113.115 44.6267 111.449 46.0432C111.275 46.191 111.091 46.3282 110.916 46.4745C109.81 47.404 108.623 47.7752 107.224 47.1156C106.538 46.7928 105.786 46.608 105.104 46.2788C104.764 46.1134 104.515 45.7634 104.108 45.3922Z" fill="white"/>
<path d="M191.7 84.2114C191.362 85.442 190.611 86.3147 189.877 87.194C189.135 88.0853 189.099 88.2976 189.829 89.1424C192.002 91.655 192.382 94.6221 191.509 97.6213C190.444 101.278 187.336 103.073 183.579 102.749C181.799 102.595 180.091 102.193 178.521 101.235C177.782 100.784 176.878 100.599 176.043 100.307C175.336 100.059 175.211 99.6065 175.171 98.855C175.065 96.8782 175.983 95.1613 176.347 93.3113C176.827 90.8632 177.42 88.4384 177.943 85.9998C178.441 83.6841 178.906 81.3599 179.401 79.0436C179.48 78.6739 179.625 78.3145 179.77 77.9636C180.181 76.9828 180.516 76.8885 181.517 77.3538C181.849 77.5075 182.231 77.5697 182.595 77.6268C184.563 77.9287 186.516 78.2467 188.33 79.1604C189.724 79.8626 190.639 81.0189 191.382 82.2947C191.689 82.8151 191.606 83.5642 191.7 84.2114ZM177.416 96.1334C177.469 96.1465 177.524 96.1586 177.577 96.1717C177.405 96.9557 177.241 97.7431 177.057 98.5246C176.945 98.9939 177.009 99.3856 177.505 99.5644C179.332 100.225 181.129 101.01 183.005 101.483C184.733 101.919 186.414 101.626 187.873 100.362C188.708 99.639 189.298 98.8237 189.703 97.8269C190.485 95.8992 190.579 93.968 189.794 92.0168C189.041 90.1481 187.618 89.1631 185.614 89.1279C185.234 89.1208 184.854 89.0674 184.475 89.0496C183.164 88.9893 181.854 88.9032 180.543 88.8922C179.881 88.886 179.296 89.1115 179.095 89.8757C178.545 91.965 177.977 94.0477 177.416 96.1334ZM180.368 82.8732C180.382 82.8763 180.396 82.8795 180.411 82.8827C180.192 83.8755 179.905 84.8586 179.774 85.8613C179.639 86.8971 179.977 87.1329 181.012 86.9355C182.731 86.6082 184.456 86.4421 186.166 86.9624C187.411 87.3418 188.328 86.8598 189.043 85.9026C189.42 85.3973 189.702 84.8205 190.012 84.2678C190.395 83.5861 190.239 82.9704 189.763 82.3923C187.888 80.1164 185.322 79.4009 182.539 79.2626C181.493 79.2102 181.135 79.5895 180.863 80.6418C180.675 81.3787 180.532 82.1282 180.368 82.8732Z" fill="white"/>
<path d="M169.436 92.0123C169.216 92.3552 169.103 92.7036 168.862 92.8764C168.132 93.4023 168.061 94.1294 168.127 94.9126C168.19 95.6706 168.291 96.4262 168.361 97.1843C168.397 97.5628 168.409 97.943 168.418 98.324C168.428 98.7557 168.247 99.0578 167.8 99.1537C167.336 99.254 167.046 98.9889 166.915 98.614C166.765 98.183 166.68 97.7183 166.634 97.2622C166.53 96.2108 166.48 95.1559 166.386 94.1038C166.301 93.1523 166.049 92.7863 165.122 92.6177C162.625 92.165 160.118 91.7824 157.616 91.3587C156.926 91.2424 156.474 91.5764 156.123 92.0942C155.625 92.8285 155.127 93.567 154.681 94.3332C154.005 95.4935 154.255 95.8044 152.168 95.3762C152.234 95.0775 152.205 94.699 152.379 94.4967C153.634 93.0481 154.592 91.4302 155.481 89.7342C156.202 88.3622 157.265 87.175 158.099 85.8582C160.292 82.3974 162.444 78.9112 164.614 75.4372C164.726 75.258 164.833 75.0667 164.984 74.925C165.534 74.4074 166.208 74.5776 166.464 75.3179C166.572 75.6289 166.587 75.9769 166.611 76.3104C166.841 79.6003 167.04 82.8931 167.299 86.1809C167.412 87.612 167.684 89.0288 167.804 90.4601C167.882 91.391 168.686 91.4902 169.436 92.0123ZM165.076 78.3404C163.845 79.3783 158.29 88.3117 157.969 89.7158C158.462 89.8626 158.96 90.0612 159.476 90.1542C161.221 90.4686 162.972 90.7476 164.721 91.0343C165.872 91.2235 166.077 91.0265 165.987 89.8576C165.76 86.9543 165.536 84.0515 165.31 81.1482C165.242 80.2756 165.165 79.4023 165.076 78.3404Z" fill="white"/>
<path d="M207.986 102.278C207.83 102.773 207.766 103.185 207.575 103.521C207.369 103.882 207.066 104.198 206.761 104.49C205.654 105.545 204.239 106.045 202.83 106.476C201.884 106.764 200.897 106.521 199.987 106.098C198.612 105.458 197.552 104.436 196.555 103.326C195.578 102.236 195.14 100.935 195.017 99.5111C194.774 96.6821 195.041 93.9285 196.302 91.3323C196.672 90.5711 197.016 89.7961 197.383 89.0328C199.051 85.5632 201.73 83.1192 205.207 81.5799C206.056 81.2033 207.097 81.1794 208.054 81.1536C208.876 81.1307 209.573 81.5632 210.169 82.172C211.134 83.156 211.574 84.3704 211.828 85.6766C211.985 86.4812 211.714 87.1822 211.198 87.7935C210.678 88.4081 210.16 89.0231 209.615 89.6131C209.423 89.8211 209.172 90.0366 208.912 90.101C208.716 90.1484 208.37 90.0175 208.264 89.8545C208.169 89.7091 208.234 89.3377 208.366 89.1917C208.675 88.8507 209.077 88.596 209.426 88.2869C211.074 86.8236 210.974 84.2055 209.231 82.8723C208.559 82.3578 207.782 82.3603 207.045 82.5564C206.317 82.7504 205.575 83.0248 204.941 83.4255C201.568 85.5525 199.177 88.4869 197.887 92.2845C197.106 94.5817 196.589 96.9096 196.708 99.3732C196.851 102.346 199.07 104.287 201.41 105.066C201.852 105.214 202.421 105.134 202.893 105.014C204.153 104.691 205.173 103.937 206.117 103.061C206.557 102.646 206.956 102.08 207.986 102.278Z" fill="white"/>
<path d="M19.5788 73.2455C22.923 73.1955 25.3941 74.3075 27.4823 76.3191C28.3146 77.1207 28.6903 77.3331 29.4143 76.0628C30.7326 73.751 32.2959 71.576 34.4107 69.9248C35.8301 68.8169 37.4312 67.9551 39.2161 67.4996C40.7029 67.1208 42.2193 66.9727 43.7377 67.0044C45.9056 67.0503 48.0459 67.3506 49.5102 69.2121C50.9122 70.9939 52.2509 72.8493 53.0004 75.008C53.8163 77.3597 54.4841 79.7634 55.1856 82.1529C56.1148 85.3184 57.0104 88.4941 57.9263 91.6626C58.1326 92.3774 57.9151 92.7124 57.1564 92.6828C56.7438 92.6674 56.3375 92.5143 55.927 92.4295C54.8374 92.2059 54.433 92.5847 54.6842 93.6569C54.8456 94.3472 55.0937 95.0171 55.3051 95.6951C55.689 96.9276 56.076 98.1591 56.4579 99.3926C56.5774 99.7786 56.4355 100.096 56.1557 100.353C55.7871 100.694 55.3633 100.648 54.9895 100.402C53.8694 99.6673 52.5787 99.4937 51.3114 99.2629C50.6181 99.1363 49.8982 99.1281 49.1895 99.1138C48.3185 99.0955 47.4465 99.1486 46.5744 99.1322C44.2452 99.0903 42.0345 99.5682 39.8799 100.456C38.8853 100.865 38.0674 101.417 37.419 102.258C37.3036 102.407 37.1433 102.591 36.9789 102.619C36.0313 102.789 35.0785 103.093 34.1105 102.766C33.2231 102.467 32.3593 102.092 31.4627 101.826C29.6533 101.287 27.8234 100.962 25.919 101.328C24.2893 101.64 22.6698 102.016 21.2637 102.905C20.0679 103.661 18.9345 104.54 17.8766 105.481C17.368 105.933 17.1281 106.676 16.7053 107.243C16.5103 107.504 16.1968 107.754 15.8905 107.841C15.1257 108.06 14.8203 107.852 14.6753 107.052C14.5314 106.26 14.4323 105.457 14.3516 104.654C14.2669 103.816 14.1076 103.691 13.3295 103.938C13.115 104.006 12.8955 104.07 12.6739 104.097C12.0163 104.175 11.8734 104.086 11.7784 103.403C11.5854 102.026 11.3434 100.648 11.276 99.2629C11.0809 95.2917 10.2947 91.4411 9.12856 87.6527C8.59655 85.9239 8.11355 84.1788 7.64485 82.4306C7.40284 81.5259 7.2558 80.5956 7.04034 79.6827C6.9321 79.2222 7.04034 78.8505 7.38139 78.5421C7.59685 78.3481 7.81845 78.1572 8.05433 77.9897C8.5026 77.6711 9.01011 77.422 9.40937 77.0523C10.8716 75.7003 12.678 74.8824 14.4803 74.2616C16.2172 73.6662 18.0471 73.0403 19.5788 73.2455ZM29.3245 78.727C29.5338 79.2232 29.6849 79.7226 29.9402 80.1606C30.8429 81.7087 31.4729 83.37 31.9692 85.0774C32.5104 86.9389 32.9576 88.828 33.4478 90.7058C33.652 91.487 33.8287 92.2763 34.0686 93.0463C34.7385 95.1958 35.8158 97.236 35.777 99.5764C35.7739 99.7776 36.0098 99.9838 36.1344 100.187C36.3151 100.075 36.5388 99.9981 36.6695 99.8439C37.1259 99.2997 37.5068 98.687 37.9949 98.1744C40.5497 95.4878 43.705 93.759 47.181 92.6031C49.8665 91.7106 52.6399 91.2695 55.4776 91.2603C56.5937 91.2562 56.7285 91.0632 56.4263 89.989C55.6563 87.2503 54.8864 84.5106 54.0971 81.7771C53.5416 79.8523 53.0473 77.9019 52.356 76.0261C51.4309 73.5182 50.0442 71.2605 48.1163 69.3714C47.2269 68.4993 46.1751 67.9796 44.9038 67.9949C43.7408 68.0082 42.5777 68.0316 41.4146 68.0551C39.8727 68.0868 38.4105 68.4442 37.0146 69.1008C35.2603 69.9269 33.8113 71.1594 32.4665 72.5226C32.2275 72.7656 32.0938 73.1189 31.9345 73.4324C31.7323 73.8317 31.574 74.2544 31.3596 74.6455C30.847 75.5788 30.2915 76.4886 29.7942 77.4301C29.5859 77.8212 29.4858 78.2685 29.3245 78.727ZM12.197 97.77C12.3349 98.9249 12.4513 100.084 12.627 101.234C12.6709 101.52 12.869 101.966 13.0609 102.004C13.3417 102.058 13.7492 101.885 13.983 101.676C15.0082 100.756 16.1887 100.098 17.412 99.4978C19.1121 98.6635 20.9379 98.2132 22.7698 97.8088C24.033 97.5301 25.3553 97.2554 26.6134 97.6608C28.9181 98.4041 31.3892 98.5828 33.5754 99.7337C34.0829 100.001 34.4005 99.7857 34.4219 99.2211C34.4362 98.8391 34.3791 98.445 34.2892 98.0713C33.3743 94.2338 32.393 90.4107 31.5434 86.559C31.0481 84.3156 30.2353 82.2233 29.0487 80.2801C28.1777 78.8546 27.4476 77.3372 26.1447 76.1895C24.7008 74.9182 23.0506 74.234 21.1728 74.0155C19.6646 73.8398 18.2166 74.2605 16.7452 74.4607C15.2431 74.6649 13.9156 75.3654 12.6259 76.073C11.5303 76.6745 10.6 77.569 9.54211 78.2491C8.73439 78.7678 8.33002 79.4428 8.4934 80.3587C8.74767 81.7893 9.06729 83.2087 9.40528 84.622C9.59317 85.4062 9.89338 86.1628 10.1099 86.9409C10.551 88.5308 11.0064 90.1177 11.3883 91.7219C11.8591 93.7059 12.2083 95.7145 12.197 97.77ZM40.0157 98.686C40.6365 98.6543 41.0705 98.6492 41.5004 98.6074C43.2374 98.4389 44.9713 98.2193 46.7113 98.0978C47.7416 98.0263 48.7831 98.0753 49.8175 98.1223C50.4588 98.1519 51.1031 98.2418 51.7311 98.3725C52.5848 98.5502 53.4231 98.8014 54.2717 99.0035C55.0723 99.1945 55.4317 98.8728 55.2755 98.1244C55.2428 97.9671 55.1877 97.8129 55.1335 97.6608C54.5913 96.1383 54.0511 94.6137 53.5018 93.0943C53.2751 92.4673 53.1229 92.4019 52.3928 92.4867C50.2495 92.7359 48.2511 93.4578 46.2619 94.2584C44.8416 94.8292 43.4692 95.4674 42.2275 96.3588C41.4269 96.9347 40.5324 97.4361 40.0157 98.686ZM15.4136 103.594C15.4003 103.594 15.3871 103.594 15.3738 103.594C15.3881 103.916 15.385 104.242 15.4228 104.562C15.4738 105.003 15.433 105.528 15.9456 105.729C16.3929 105.904 16.6379 105.476 16.9259 105.247C18.2136 104.219 19.4777 103.164 20.7735 102.146C21.5445 101.539 22.4277 101.151 23.3897 100.923C24.5211 100.655 25.6402 100.331 26.7665 100.04C27.0892 99.9563 27.4823 99.8776 27.4149 99.4804C27.3812 99.2833 27.0341 99.025 26.8013 98.9933C25.4299 98.8065 24.0667 98.5532 22.6596 98.7891C20.3242 99.1802 18.2105 100.114 16.1631 101.247C15.6893 101.509 15.48 101.933 15.4238 102.43C15.3789 102.813 15.4136 103.205 15.4136 103.594Z" fill="white"/>
<path d="M194.461 17.5567C195.113 16.2558 195.79 15.1433 196.637 13.8561C197.285 14.8566 197.796 15.6447 198.389 16.5607C198.771 15.7041 199.079 15.02 199.384 14.3347C199.457 14.1691 199.5 13.9852 199.598 13.8367C199.898 13.3856 200.327 13.3433 200.654 13.7842C200.906 14.1245 201.061 14.5391 201.25 14.9252C201.401 15.2335 201.534 15.5499 201.72 15.9611C202.923 14.9377 202.66 13.1343 204.077 12.3976C204.881 13.0189 204.85 14.0571 205.326 14.9549C205.55 14.8201 205.818 14.7504 205.925 14.5791C206.455 13.7259 206.927 12.8385 207.449 11.9796C207.661 11.6312 207.943 11.3251 208.192 11.0008C208.457 11.3206 208.809 11.6027 208.964 11.9682C209.158 12.4239 209.187 12.9481 209.294 13.4415C209.336 13.6346 209.399 13.8242 209.682 14.0606C210.01 13.3307 210.38 12.6169 210.654 11.8677C210.988 10.9574 211.007 10.9448 211.96 11.075C212.449 11.1413 212.962 11.0796 213.458 11.0225C214.378 10.9185 214.709 11.163 214.815 12.1007C214.839 12.3165 214.861 12.5335 214.86 12.7505C214.848 14.7698 214.796 16.7903 214.826 18.8096C214.85 20.3595 214.982 21.9071 215.056 23.457C215.08 23.9606 215.045 24.4666 215.08 24.9692C215.207 26.7338 215.355 28.4961 215.492 30.2596C215.573 31.3001 215.623 32.3405 215.98 33.3433C216.057 33.5592 215.897 33.8881 215.781 34.136C215.664 34.3884 215.431 34.586 215.31 34.8373C214.415 36.6967 213.297 38.4087 212.09 40.0808C211.333 41.1305 210.648 42.2658 210.132 43.4502C209.373 45.1931 208.253 46.6927 207.245 48.2734C206.432 49.5481 205.669 50.8569 204.929 52.1761C204.352 53.204 203.846 54.272 203.303 55.3182C203.14 55.6322 202.889 55.7533 202.515 55.7762C201.365 55.8481 200.218 55.9737 199.072 56.0822C197.926 56.1907 196.779 56.2958 195.636 56.4203C195.035 56.4854 194.416 56.4614 193.941 56.9914C193.68 57.2826 193.347 57.1444 193.11 56.844C192.076 55.5374 190.764 54.4901 189.673 53.2554C188.443 51.8632 187.087 50.6354 185.681 49.4567C184.353 48.3431 182.918 47.3563 181.556 46.2827C179.856 44.9441 178.227 43.5095 176.48 42.2372C175.264 41.3509 174.141 40.2978 172.66 39.7907C172.133 39.6103 171.664 39.2288 171.208 38.8862C170.876 38.636 170.984 38.2968 171.235 38.0353C172.162 37.0701 173.074 36.0913 174.037 35.1651C176.609 32.6877 179.342 30.3761 181.496 27.483C182.68 25.8931 184.007 24.4084 185.279 22.8848C186.296 21.6661 187.373 20.4954 188.337 19.2368C189.036 18.3242 189.641 17.3305 190.2 16.3243C190.904 15.0519 191.537 14.8978 192.651 15.8652C192.895 16.0776 193.091 16.3426 193.329 16.563C193.663 16.8737 194.012 17.1649 194.461 17.5567ZM192.069 16.852C191.668 17.1398 191.339 17.2974 191.12 17.5498C190.671 18.0683 190.283 18.6394 189.868 19.1865C189.192 20.0762 188.527 20.9762 187.832 21.8511C187.317 22.4987 186.734 23.0938 186.228 23.7482C184.883 25.4888 183.639 27.3151 181.884 28.696C181.72 28.825 181.559 29.0146 181.498 29.2077C180.987 30.8009 179.63 31.7421 178.615 32.9379C177.991 33.6723 177.209 34.2719 176.497 34.9321C175.572 35.7898 174.64 36.6396 173.725 37.5087C173.484 37.7372 173.299 38.025 173.066 38.3117C173.543 38.62 173.92 38.8313 174.261 39.0906C176.101 40.4897 177.948 41.8809 179.76 43.3131C182.282 45.3061 184.988 47.0479 187.42 49.1723C189.11 50.6491 190.773 52.1339 192.294 53.782C192.543 54.0515 192.886 54.2343 193.274 54.5232C193.637 53.9487 193.925 53.5033 194.203 53.051C194.429 52.6809 194.612 52.28 194.869 51.934C196.09 50.2824 197.328 48.6446 198.562 47.0045C198.734 46.7761 198.913 46.5522 199.098 46.3352C199.969 45.3198 200.905 44.3525 201.702 43.2811C202.671 41.9802 203.533 40.6017 204.422 39.2425C205.051 38.2785 205.68 37.31 206.248 36.3095C206.843 35.2599 206.779 35.0326 205.969 34.104C205.211 33.2337 204.433 32.3759 203.716 31.4714C201.901 29.1791 200.126 26.8548 198.315 24.5591C197.486 23.5106 196.455 22.5901 195.793 21.4502C194.809 19.7599 193.266 18.5949 192.069 16.852ZM194.971 54.5735C195.177 54.65 195.275 54.7174 195.375 54.7185C197.66 54.7379 199.917 54.5152 202.101 53.8025C202.344 53.7237 202.568 53.477 202.724 53.2543C203.699 51.8666 204.657 50.4675 205.608 49.0638C206.337 47.989 207.069 46.9154 207.762 45.819C208.418 44.7819 209.051 43.7288 209.648 42.6586C210.683 40.8038 211.684 38.9307 212.696 37.0633C212.989 36.5231 213.293 35.9863 213.543 35.4266C213.784 34.8864 213.537 34.5529 212.957 34.6557C212.501 34.7356 212.059 34.9149 211.625 35.084C210.423 35.55 209.304 36.2398 207.954 36.2935C207.711 36.3038 207.428 36.6293 207.254 36.8749C206.593 37.8114 205.973 38.7777 205.328 39.7268C205.005 40.203 204.65 40.6576 204.334 41.1373C203.62 42.2201 202.978 43.3531 202.201 44.3879C201.445 45.3952 200.526 46.277 199.739 47.2626C198.703 48.5601 197.649 49.8542 196.753 51.2453C196.16 52.1659 195.731 53.1972 195.081 54.0949C195.006 54.1966 195.016 54.361 194.971 54.5735ZM211.459 13.4781C210.722 13.7556 210.636 14.2125 210.516 14.6648C210.36 15.2541 210.298 15.9303 209.959 16.3974C209.401 17.1661 209.306 17.9313 209.392 18.8302C209.511 20.0854 209.416 21.3657 209.583 22.6118C209.92 25.1371 210.25 27.6623 210.46 30.2025C210.519 30.922 210.545 31.6438 210.603 32.3634C210.638 32.7997 210.756 33.2006 211.24 33.381C211.648 33.0407 211.533 32.6592 211.434 32.2732C211.354 31.9614 211.244 31.645 211.234 31.3286C211.164 28.7005 211.076 26.0713 211.07 23.4421C211.064 21.2446 211.146 19.046 211.222 16.8497C211.257 15.7806 211.369 14.7139 211.459 13.4781ZM195.074 18.3801C196.721 20.878 203.314 28.8033 204.035 29.1311C203.927 27.8005 202.92 26.9474 202.424 25.852C201.921 24.7407 201.257 23.698 200.605 22.6609C199.933 21.593 199.193 20.5685 198.479 19.528C197.803 18.5412 197.361 17.3808 196.295 16.4317C195.827 17.1809 195.437 17.8022 195.074 18.3801ZM203.823 15.2941C203.723 15.3146 203.622 15.3352 203.522 15.3558C203.251 16.0216 203.014 16.7046 202.699 17.3476C202.444 17.8673 202.519 18.2968 202.783 18.7788C203.109 19.3772 203.456 19.9894 203.638 20.6393C204.13 22.3982 205.019 23.9744 205.863 25.5608C206.558 26.8685 207.199 28.1809 207.62 29.6017C207.664 29.7547 207.835 29.8701 207.947 30.0026C208 29.3607 207.888 28.8045 207.736 28.2585C207.136 26.0999 206.527 23.9447 205.917 21.7894C205.396 19.9506 204.883 18.1106 204.338 16.2797C204.232 15.9314 203.997 15.6219 203.823 15.2941ZM207.757 14.1565C207.585 14.3518 207.439 14.4637 207.366 14.6111C207.046 15.2552 206.831 15.9702 206.419 16.5459C205.913 17.254 205.965 17.9073 206.187 18.6737C206.958 21.3349 207.681 24.0098 208.435 26.6755C208.505 26.9211 208.665 27.1415 208.783 27.3734C208.979 26.9805 209.004 26.6367 208.974 26.2975C208.852 24.9006 208.676 23.5084 208.591 22.1092C208.483 20.3138 208.478 18.5115 208.356 16.7172C208.299 15.8789 208.223 15.012 207.757 14.1565ZM205.572 28.6274C205.67 28.576 205.767 28.5235 205.865 28.4721C203.982 24.3867 202.098 20.3012 200.181 16.1404C199.12 17.4859 199.122 18.2728 199.887 19.4869C201.521 22.0796 203.097 24.7076 204.703 27.3174C204.977 27.7628 205.282 28.1911 205.572 28.6274ZM212.343 18.323C212.252 18.3208 212.161 18.3185 212.069 18.3162C212.025 18.5104 211.947 18.7045 211.943 18.901C211.912 20.1642 211.873 21.4274 211.883 22.6906C211.891 23.6226 211.849 24.582 212.051 25.4786C212.259 26.4003 212.327 27.3003 212.346 28.2345C212.37 29.4886 212.516 30.7404 212.619 31.9922C212.634 32.1692 212.666 32.3588 212.745 32.513C212.801 32.6227 212.97 32.7677 213.055 32.7483C213.2 32.7152 213.355 32.5895 213.439 32.4593C213.507 32.3508 213.506 32.1772 213.489 32.0379C213.272 30.2504 213.05 28.4641 212.823 26.6778C212.787 26.3946 212.632 26.0976 212.682 25.8349C212.994 24.1377 212.62 22.4622 212.556 20.7786C212.524 19.9586 212.415 19.142 212.343 18.323Z" fill="white"/>
<path d="M97.2214 101.104C98.025 101.562 98.7751 102.007 99.5395 102.423C100.598 102.999 101.992 102.732 102.915 101.971C104.492 100.667 104.649 98.9667 104.45 97.1312C104.417 96.8239 104.378 96.5111 104.287 96.2179C103.695 94.3108 105.023 92.9848 106.477 92.371C107.223 92.0567 107.971 91.7457 108.838 91.3834C108.47 90.9072 108.151 90.4924 107.828 90.0813C107.706 89.9265 107.556 89.7905 107.45 89.6261C107.128 89.1273 107.183 88.854 107.65 88.4885C108.225 88.0394 108.821 87.6138 109.366 87.1304C110.883 85.7826 112.407 84.4383 113.875 83.0379C115.404 81.5805 116.874 80.0619 118.366 78.5662C118.733 78.1987 119.033 77.8091 118.931 77.2238C118.873 76.8889 119.091 76.6613 119.361 76.4582C120.438 75.6478 121.478 74.7872 122.571 74.0009C123.555 73.2929 124.589 72.6587 125.803 72.3917C126.103 72.326 126.394 72.2099 126.683 72.1004C127.731 71.7041 128.827 71.5824 129.929 71.6334C130.389 71.6548 130.867 71.8424 131.287 72.0523C132.681 72.7495 133.864 73.7297 134.581 75.1231C135.489 76.8883 135.627 78.6937 134.698 80.561C134.144 81.6744 133.192 82.369 132.378 83.2142C132.01 83.5964 131.568 83.9066 131.169 84.2596C131.002 84.4077 130.867 84.5915 130.704 84.7446C130.297 85.1251 129.893 85.5101 129.462 85.8624C129.352 85.9511 129.127 85.9806 128.99 85.9351C128.539 85.7857 128.171 85.9491 127.776 86.1302C127.424 86.2913 127.023 86.3479 126.667 86.5027C126.025 86.7813 125.382 87.0636 124.773 87.4063C122.172 88.8705 119.606 90.3966 116.983 91.8185C115.638 92.5474 114.382 93.3925 113.135 94.2626C112.646 94.6034 112.113 94.7234 111.529 94.6353C111.053 94.5636 110.714 94.3537 110.506 93.872C110.085 92.8958 109.523 92.7115 108.553 93.1556C107.914 93.4486 107.274 93.7424 106.634 94.0362C105.777 94.4305 105.453 95.1386 105.614 96.1264C105.736 96.8758 105.846 97.6332 105.873 98.3905C105.93 99.9895 105.397 101.349 104.216 102.486C102.987 103.667 99.8524 104.261 98.5459 103.167C98.1375 102.825 97.6433 102.585 97.2332 102.245C96.9126 101.977 96.7595 101.618 97.2214 101.104ZM109.116 89.515C109.998 90.6307 110.849 91.7101 111.7 92.7902C111.911 93.0573 112.181 93.0785 112.458 92.9393C112.709 92.8134 112.928 92.6258 113.18 92.5023C115.045 91.5821 116.781 90.432 118.66 89.5245C120.527 88.6235 122.157 87.2706 124.109 86.4965C124.491 86.3451 124.522 86.0138 124.253 85.6568C124.016 85.3432 123.745 85.0539 123.48 84.7623C122.578 83.766 122.099 82.5063 121.375 81.4C120.887 80.6557 120.497 79.8325 119.766 79.1854C119.554 79.3762 119.359 79.5292 119.191 79.7059C118.216 80.7231 117.257 81.7555 116.273 82.7622C115.629 83.4226 114.902 84.0074 114.3 84.7026C113.446 85.6885 112.535 86.5957 111.513 87.4087C110.703 88.0508 109.956 88.7719 109.116 89.515ZM133.682 80.3442C134.075 79.6943 134.278 78.9992 134.327 78.252C134.439 76.5458 133.709 75.1613 132.527 74.0462C131.858 73.4161 130.966 72.9406 130.023 72.9218C128.874 72.8993 127.719 73.0561 126.646 73.5624C126.037 73.8491 125.397 74.071 124.791 74.3634C124.414 74.5455 124.045 74.7712 123.724 75.0386C123.124 75.5397 123.1 75.9057 123.484 76.5873C123.83 77.1992 124.142 77.8301 124.473 78.4507C124.709 78.8945 124.906 79.3673 125.197 79.7726C126.292 81.2958 127.895 82.3091 129.17 83.6584C129.556 84.0678 130.161 84.0208 130.628 83.6062C131.28 83.028 131.899 82.4088 132.497 81.7754C132.921 81.3256 133.288 80.8228 133.682 80.3442ZM128.115 84.6393C127.907 84.3891 127.747 84.1694 127.56 83.9755C126.544 82.9246 125.359 82.0317 124.538 80.8003C124.103 80.1476 123.718 79.4608 123.323 78.7819C122.954 78.1475 122.609 77.5001 122.24 76.8666C122.055 76.5493 121.821 76.4602 121.474 76.7034C120.685 77.2577 120.6 77.6395 121.111 78.4645C121.748 79.4933 122.358 80.5406 123.003 81.5647C123.589 82.4933 124.168 83.4315 124.821 84.3123C125.73 85.5401 126.875 85.6662 128.115 84.6393Z" fill="white"/>
<path d="M131.107 68.1284C130.942 68.2172 130.703 68.4564 130.479 68.4417C130.08 68.4157 130.072 68.0192 130.091 67.712C130.171 66.3813 130.439 65.0849 130.861 63.8201C130.985 63.4476 131.092 63.0682 131.212 62.6943C131.461 61.9155 131.703 61.1339 131.966 60.3607C132.088 60.0032 132.362 59.8905 132.709 60.0478C133.046 60.1997 133.146 60.4571 133.014 60.8128C132.198 63.0201 131.719 65.3134 131.27 67.614C131.244 67.7511 131.187 67.8825 131.107 68.1284Z" fill="white"/>
<path d="M135.351 70.4404C135.508 70.1041 135.608 69.7136 135.84 69.4325C136.287 68.8909 136.796 68.3995 137.301 67.9087C138.089 67.1451 138.886 66.3897 139.697 65.651C140.167 65.2241 140.693 64.9117 141.403 65.1907C141.461 65.7361 141.12 66.0247 140.756 66.2877C139.392 67.268 138.29 68.5096 137.226 69.791C137.118 69.9212 137.012 70.0527 136.916 70.192C136.458 70.8607 136.275 70.9009 135.351 70.4404Z" fill="white"/>
<path d="M138.372 92.6628C137.72 91.8667 137.096 91.1141 136.481 90.3528C135.547 89.1966 134.619 88.0356 133.689 86.8749C133.619 86.7876 133.52 86.7023 133.496 86.6016C133.444 86.3735 133.321 86.043 133.425 85.9225C133.661 85.6456 134.017 85.7567 134.247 85.9901C134.679 86.4307 135.086 86.8983 135.475 87.3788C136.427 88.5563 137.362 89.7461 138.303 90.933C138.46 91.1313 138.624 91.3256 138.758 91.5386C139.115 92.1064 139.079 92.207 138.372 92.6628Z" fill="white"/>
<path d="M138.249 76.9901C138.223 76.4484 138.447 76.2008 138.862 76.1398C140.168 75.949 141.474 75.7638 142.783 75.5942C144.005 75.4355 145.262 75.5526 146.448 75.1012C146.594 75.0454 146.802 75.0345 146.935 75.0981C147.051 75.1532 147.196 75.4307 147.167 75.4626C146.875 75.7823 146.681 76.236 146.172 76.2934C144.944 76.4322 143.718 76.6495 142.488 76.6819C141.357 76.7119 140.249 76.7887 139.145 77.0349C138.867 77.0963 138.557 77.0098 138.249 76.9901Z" fill="white"/>
<path d="M126.306 69.9881C125.997 69.9983 125.71 70.0943 125.56 69.9922C125.35 69.8501 125.189 69.5773 125.102 69.3278C124.77 68.3692 124.502 67.3883 124.159 66.4347C123.778 65.3769 123.337 64.3409 122.932 63.2917C122.852 63.0861 122.779 62.8657 122.767 62.6486C122.754 62.3948 122.803 62.0717 123.135 62.0992C123.343 62.1162 123.638 62.2885 123.716 62.4673C124.193 63.5783 124.65 64.701 125.054 65.84C125.448 66.9529 125.773 68.0907 126.123 69.2195C126.186 69.427 126.224 69.6434 126.306 69.9881Z" fill="white"/>
<path d="M143.936 86.1309C143.044 86.1421 142.174 86.0575 141.344 85.6413C140.869 85.4027 140.362 85.2231 139.861 85.0378C139.068 84.7442 138.267 84.4698 137.47 84.1824C137.366 84.1443 137.263 84.086 137.176 84.0177C136.933 83.8278 136.645 83.6583 136.796 83.2641C136.935 82.9021 137.243 82.7521 137.7 82.8519C137.835 82.8817 137.964 82.9483 138.092 83.0049C139.097 83.449 140.105 83.8838 141.102 84.3432C141.613 84.5781 142.101 84.8601 142.601 85.1183C142.925 85.2864 143.258 85.4412 143.578 85.6169C143.735 85.7022 143.872 85.8216 144.018 85.9262C143.992 85.9934 143.964 86.0625 143.936 86.1309Z" fill="white"/>
<path d="M112.39 88.3695C112.851 87.8615 113.225 87.4441 113.604 87.029C114.265 86.304 114.924 85.5764 115.592 84.8586C116.668 83.7033 117.835 82.652 119.182 81.8154C119.301 81.7417 119.425 81.624 119.548 81.6224C119.724 81.6201 119.98 81.6541 120.057 81.7689C120.138 81.8912 120.094 82.1463 120.023 82.3056C119.96 82.4455 119.79 82.5444 119.654 82.6447C118.259 83.6679 117.134 84.9678 115.974 86.2311C115.193 87.0801 114.44 87.9538 113.67 88.8125C113.559 88.9369 113.44 89.0773 113.294 89.1439C112.974 89.2896 112.58 89.3546 112.365 89.0529C112.249 88.8884 112.378 88.5473 112.39 88.3695Z" fill="white"/>
<path d="M130.626 74.3009C130.777 74.4242 131.033 74.5497 131.151 74.7534C131.258 74.9386 131.31 75.2633 131.218 75.433C131.053 75.7314 130.782 75.5265 130.56 75.4116C130.311 75.2829 130.072 75.1161 129.808 75.0413C129.286 74.8931 128.764 74.9091 128.231 75.0854C127.701 75.2603 127.148 75.3807 126.596 75.4617C126.431 75.4858 126.236 75.2934 126.055 75.2004C126.148 75.0378 126.203 74.7857 126.339 74.7281C127.541 74.2206 128.78 73.8644 130.107 74.0787C130.267 74.1035 130.416 74.2087 130.626 74.3009Z" fill="white"/>
</svg>
