<svg width="228" height="118" viewBox="0 0 228 118" fill="none" xmlns="http://www.w3.org/2000/svg">
<rect y="0.000244141" width="228" height="118" rx="6" fill="#8A1538"/>
<g clip-path="url(#clip0_1_5086)">
<path d="M134.26 94.5385C134.21 93.5482 134.138 92.7306 134.127 91.9243C134.102 89.7538 134.13 87.5888 134.098 85.4196C134.092 84.8035 133.962 84.1947 133.891 83.634C133.476 83.4873 133.335 83.6886 133.259 83.9225C133.02 84.6041 132.72 85.2745 132.596 85.98C132.27 87.8305 132.033 89.6873 131.753 91.5445C131.7 91.8698 131.634 92.1976 131.571 92.5098C130.419 93.2212 129.303 92.9782 128.2 92.5567C128.034 92.4906 127.886 92.1936 127.856 91.9858C127.814 91.7067 127.901 91.412 127.939 91.1262C128.163 89.1613 128.405 87.2081 128.6 85.2411C128.695 84.247 128.723 83.2428 128.26 82.1641C128.071 82.3444 127.897 82.4414 127.835 82.5848C127.491 83.3805 127.093 84.1637 126.872 84.9891C126.42 86.7077 126.025 88.4532 125.916 90.2432C125.911 90.3396 125.891 90.4314 125.878 90.529C125.704 91.9487 125.362 92.2591 123.959 92.3022C123.864 92.3044 123.763 92.3149 123.673 92.3016C121.712 92.0983 121.69 91.9772 121.87 90.2186C122.096 87.967 122.157 85.7005 122.419 83.4498C122.711 80.9144 123.139 78.3991 123.507 75.8725C123.532 75.6843 123.602 75.4957 123.643 75.3121C123.798 74.5718 124.2 74.1038 124.997 74.0432C125.57 74.0004 126.143 73.8767 126.721 73.8623C127.086 73.849 127.453 73.9677 127.861 74.0349C127.756 75.2658 127.108 76.2919 127.109 77.6217C127.48 77.3942 127.713 77.2574 127.936 77.1076C128.377 76.8163 128.794 76.4778 129.258 76.2339C130.422 75.6307 131.393 76.0095 131.653 77.3081C131.767 77.8683 131.854 78.4407 131.979 79.1459C132.237 78.9458 132.421 78.825 132.579 78.6794C133.002 78.2884 133.388 77.8527 133.83 77.4877C134.446 76.9817 135.16 76.7448 135.978 76.7981C137.041 76.8668 137.703 77.2857 137.979 78.3462C138.233 79.3225 138.442 80.3361 138.458 81.3327C138.503 85.2335 138.298 89.1346 137.854 93.012C137.684 94.497 137.171 94.9186 135.656 94.8273C135.235 94.8138 134.82 94.6671 134.26 94.5385ZM125.555 79.2566C125.754 77.6488 126.341 76.1928 126.223 74.5312C125.786 74.5571 125.431 74.5834 125.032 74.6102C124.989 75.0733 124.947 75.4556 124.918 75.8353C124.863 76.5578 124.829 77.2766 124.743 77.9971C124.256 81.9629 123.755 85.9313 123.261 89.8984C123.224 90.1843 123.172 90.4727 123.164 90.7606C123.157 91.1365 123.313 91.4323 123.707 91.5019C123.972 91.5432 124.247 91.5237 124.558 91.5347C124.645 91.0343 124.717 90.6101 124.796 90.1846C125.096 88.5223 125.382 86.8624 125.698 85.2046C125.902 84.1546 126.293 83.1741 126.819 82.2432C127.21 81.5493 127.797 81.2102 128.581 81.1592C129.272 81.1176 129.698 81.3653 129.824 82.0776C129.94 82.733 130.01 83.4186 129.952 84.0829C129.814 85.6651 129.586 87.241 129.404 88.8237C129.326 89.5429 129.241 90.2634 129.206 90.9822C129.167 91.9591 129.476 92.1688 130.586 91.9646C130.63 91.5086 130.693 91.0346 130.726 90.5584C130.85 89.0228 130.959 87.4825 131.091 85.9456C131.174 84.9682 131.515 84.0702 131.948 83.1998C132.485 82.1273 133.545 82.0937 134.446 82.2057C135.288 82.3135 135.411 83.0485 135.593 83.6996C135.671 83.9724 135.694 84.2695 135.701 84.5549C135.717 85.228 135.749 85.9056 135.699 86.5758C135.531 88.6923 135.324 90.8009 135.14 92.9129C135.116 93.1891 135.121 93.4674 135.107 93.7197C135.59 93.9573 135.993 94.0328 136.427 93.8309C136.467 93.6842 136.524 93.5492 136.544 93.4134C136.935 89.2368 137.081 85.0449 136.903 80.8516C136.869 80.042 136.681 79.2304 136.517 78.4292C136.408 77.8975 136.144 77.4447 135.507 77.2491C134.521 77.7767 133.819 78.6285 133.171 79.5297C132.888 79.9251 132.654 80.3415 132.388 80.7486C132.025 81.3126 131.527 81.489 130.817 81.211C130.805 80.8531 130.782 80.4751 130.774 80.1017C130.756 79.3335 130.765 78.5602 130.724 77.7887C130.69 77.2657 130.578 76.7566 130.087 76.3954C129.276 76.7523 128.704 77.3387 128.149 77.9368C127.853 78.2539 127.591 78.6015 127.313 78.9374C126.856 79.4667 126.306 79.6009 125.555 79.2566Z" fill="white"/>
<path d="M92.5833 88.6823C93.2067 88.9245 93.8242 88.7194 94.4373 88.6548C96.1684 88.4727 97.8979 88.3643 99.6193 88.6248C100.185 88.7081 100.755 88.8568 101.278 89.0727C101.92 89.3336 102.236 89.8727 102.127 90.5828C101.993 91.4881 101.852 92.3876 101.681 93.2921C101.54 94.0299 101.073 94.5021 100.341 94.6394C99.6309 94.78 98.9173 94.8992 98.1981 94.9459C95.4117 95.1021 92.6206 95.1489 89.829 95.0268C89.2066 94.9976 88.5766 94.9256 87.9722 94.7903C86.8253 94.5382 86.4411 94.07 86.4191 92.8689C86.4114 92.2457 86.4918 91.6216 86.5805 91.0034C87.1375 87.1426 87.7101 83.2865 88.2814 79.4233C88.4726 78.1403 88.6924 76.8522 88.8455 75.5613C89.0036 74.174 89.095 72.7838 89.2078 71.3898C89.3103 70.1446 89.3972 68.8947 89.5152 67.6541C89.533 67.4232 89.633 67.1997 89.7132 66.9063C90.0195 66.852 90.2956 66.7516 90.5622 66.7631C94.0273 66.9127 97.4854 67.0635 100.95 67.25C101.565 67.2805 102.197 67.4036 102.787 67.5854C103.627 67.8479 103.844 68.1989 103.816 69.0782C103.796 69.7504 103.739 70.4218 103.659 71.0899C103.575 71.7367 103.175 72.131 102.531 72.2304C101.959 72.3172 101.384 72.3898 100.81 72.4255C99.3189 72.5135 97.8279 72.5575 96.341 72.6669C95.818 72.7009 95.301 72.8514 94.786 72.9721C94.3779 73.0739 94.154 73.3854 94.0319 73.7745C93.8409 74.3961 93.8067 75.5705 93.9777 76.5761C94.4589 76.6377 94.9757 76.693 95.4879 76.7639C97.6297 77.0747 98.0242 77.7248 97.3546 79.7906C97.1874 80.2979 96.8825 80.6091 96.3458 80.6896C95.6309 80.8017 94.9223 80.9494 94.2075 81.0615C93.4285 81.1849 93.0311 81.6375 92.9392 82.4032C92.7486 83.98 92.5353 85.5535 92.3531 87.1361C92.292 87.6613 92.2618 88.1956 92.5833 88.6823ZM91.4731 67.5494C91.1919 68.5324 90.7883 69.5297 90.8064 70.5846C90.8479 72.517 90.6881 74.4336 90.4308 76.3382C90.1047 78.7252 89.7249 81.0997 89.3678 83.4775C88.9968 85.9018 88.6188 88.3274 88.2562 90.7576C88.1416 91.52 88.0497 92.2858 88.2372 93.0534C88.3912 93.6727 88.744 94.0877 89.3711 94.2263C89.7001 94.3002 90.0363 94.3728 90.3657 94.3659C93.1069 94.3279 95.8456 94.2757 98.5856 94.2306C99.0839 94.2231 99.4345 93.9625 99.5942 93.5374C99.9191 92.6348 100.25 91.7239 100.445 90.7929C100.618 89.9906 100.273 89.4934 99.4761 89.2674C98.9262 89.1078 98.3385 88.9842 97.7748 88.996C96.2372 89.0262 94.7064 89.1361 93.1692 89.2103C92.6449 89.2372 92.1127 89.3022 91.5914 89.2624C90.9509 89.2143 90.7236 88.9681 90.7088 88.3462C90.6962 87.8194 90.7335 87.2837 90.7959 86.7657C90.9744 85.2866 91.2196 83.8103 91.3457 82.3258C91.4229 81.3937 91.9011 80.9415 92.7412 80.7484C93.1162 80.6672 93.4925 80.5931 93.8759 80.5178C94.3875 80.4197 94.9088 80.3346 95.3505 80.2563C95.8582 79.5564 96.0521 78.868 96.16 78.1509C96.2234 77.7209 96.0177 77.3899 95.5977 77.2587C95.2791 77.1609 94.9421 77.1252 94.611 77.081C94.1382 77.0253 93.6516 77.016 93.1809 76.9305C92.5589 76.8204 92.3064 76.5566 92.3335 75.964C92.3727 75.1488 92.4558 74.3332 92.5699 73.5268C92.662 72.8859 93.0837 72.4878 93.7093 72.3695C94.5616 72.2037 95.4151 72.045 96.2755 71.9658C97.2808 71.8757 98.2954 71.8795 99.3058 71.8178C99.8799 71.7821 100.452 71.6953 101.025 71.6085C101.382 71.5525 101.644 71.3297 101.768 70.9918C102.121 70.0402 102.308 69.0665 102.126 68.0847C100.798 67.7619 93.6829 67.4146 91.4731 67.5494Z" fill="white"/>
<path d="M151.708 92.8183C152.092 93.786 151.843 94.6605 151.589 95.5433C151.478 95.9156 151.171 96.0876 150.835 96.1399C150.313 96.225 149.786 96.2745 149.258 96.28C148.152 96.2998 147.04 96.372 145.943 96.2727C143.011 96.0213 141.068 94.4333 140.044 91.6833C138.652 87.9332 139.213 84.3876 141.242 81.0373C142.015 79.7614 142.868 78.5227 144.115 77.6402C144.5 77.3663 144.917 77.0646 145.358 76.9422C147.957 76.2242 149.95 76.1131 152.133 77.607C152.462 78.636 152.462 78.636 152.226 79.8315C151.876 80.18 151.42 80.136 150.997 80.1523C147.067 80.3203 143.941 85.1509 144.744 88.7263C145.097 90.3022 145.95 91.4222 147.484 91.995C148.35 92.3191 149.231 92.5228 150.158 92.5715C150.698 92.5932 151.215 92.6485 151.708 92.8183ZM150.888 78.085C149.912 77.5967 148.866 77.4589 147.81 77.4259C147.02 77.4043 146.312 77.6841 145.703 78.2256C142.23 81.303 140.002 85.7687 141.777 91.3834C142.225 92.7953 143.002 94.0243 144.306 94.7922C146.202 95.9108 148.217 95.9649 150.259 95.3823C150.52 94.1604 150.52 94.1604 150.188 93.154C149.792 93.1212 149.359 93.0805 148.934 93.0457C147.966 92.9749 147.037 92.7502 146.14 92.3729C143.837 91.4001 142.569 89.1414 142.924 86.6685C143.21 84.7149 144.22 83.1617 145.609 81.8353C146.904 80.6063 148.406 79.7962 150.25 79.7925C150.478 79.7961 150.714 79.7175 150.971 79.672C151.158 79.1099 151.099 78.6133 150.888 78.085Z" fill="white"/>
<path d="M160.593 73.1457C160.161 73.281 159.884 73.3374 159.632 73.4483C159.012 73.72 158.413 74.0318 157.799 74.2951C157.034 74.6218 156.347 74.2733 156.171 73.4449C156.082 73.0272 156.085 72.5859 156.042 72.0939C157.519 70.1933 159.503 69.239 161.878 69.1264C163.219 69.0649 164.285 69.7282 165.09 70.7904C165.532 71.3734 165.661 72.0191 165.385 72.6999C165.206 73.143 165.008 73.5971 164.738 73.9829C164.157 74.806 163.543 75.6129 162.887 76.3905C161.831 77.6432 160.732 78.8595 159.649 80.0875C159.496 80.2616 159.375 80.4519 159.144 80.7648C159.466 80.7959 159.636 80.8465 159.809 80.8233C161.625 80.626 163.449 80.4275 165.266 80.1933C165.804 80.12 166.204 80.2621 166.574 80.6889C166.612 81.3581 166.311 81.9845 166.177 82.6329C166.085 83.068 165.8 83.2875 165.368 83.3348C164.263 83.4426 163.16 83.5646 162.059 83.6498C160.522 83.768 158.982 83.828 157.447 83.9534C156.656 84.0127 155.911 83.9539 155.204 83.5723C154.879 83.3948 154.666 83.1461 154.66 82.7798C154.657 81.274 154.797 79.8678 156.005 78.6837C157.475 77.2328 158.772 75.5994 160.125 74.0296C160.294 73.8232 160.384 73.5428 160.593 73.1457ZM157.294 81.1004C157.401 80.4641 157.837 80.1884 158.133 79.8273C159.633 78.0109 161.158 76.2121 162.633 74.3782C163.332 73.5122 163.93 72.5758 164.198 71.4776C164.263 71.2236 164.199 70.9412 164.19 70.6046C161.393 69.9545 159.159 71.0708 156.915 72.5047C157.002 72.8713 157.086 73.2166 157.199 73.6888C157.859 73.3953 158.413 73.1207 158.986 72.909C159.433 72.7414 159.896 72.5713 160.364 72.5177C161.315 72.415 161.915 73.308 161.45 74.1252C161.222 74.5403 160.907 74.9195 160.589 75.2772C159.634 76.3576 158.697 77.4568 157.683 78.4891C156.725 79.4672 156.164 80.5733 156.165 81.947C156.168 82.0862 156.098 82.2308 156.109 82.3758C156.119 82.6386 156.166 82.9022 156.211 83.2395C158.789 82.9879 161.273 82.7385 163.757 82.4963C163.902 82.4853 164.047 82.4742 164.19 82.449C164.853 82.3386 164.926 82.2522 165.092 81.2014C164.554 81.1499 164.059 81.3406 163.556 81.4445C162.139 81.7399 160.711 81.8904 159.259 81.9054C158.51 81.9132 157.869 81.6962 157.294 81.1004Z" fill="white"/>
<path d="M104.867 76.9008C105.773 76.5857 106.7 76.7153 107.6 76.6952C110.485 76.6391 113.37 76.6639 116.257 76.6589C116.448 76.6617 116.642 76.6787 116.835 76.6886C117.698 76.7486 117.978 76.9194 118.169 77.7084C118.337 78.406 118.458 79.1268 118.503 79.8388C118.549 80.5508 118.19 80.9303 117.473 80.9473C116.514 80.9703 115.546 80.9364 114.584 80.9011C112.086 80.8153 109.59 80.7068 107.09 80.6137C106.802 80.606 106.511 80.6209 106.228 80.5977C105.548 80.5346 105.076 80.2362 104.849 79.5344C104.561 78.6596 104.386 77.7943 104.867 76.9008ZM106.052 79.2769C106.681 79.3417 107.247 79.4251 107.817 79.4489C110.46 79.5606 113.11 79.6711 115.755 79.7531C116.323 79.7698 116.908 79.7102 117.475 79.6318C117.869 79.5765 118.056 79.2641 118.014 78.9042C117.969 78.5229 117.743 78.2469 117.404 78.1969C117.216 78.1715 117.021 78.1913 116.828 78.1814C115.626 78.1154 114.425 78.0565 113.228 77.9749C111.065 77.8368 108.901 77.6916 106.739 77.5534C106.471 77.5348 106.198 77.5686 105.847 77.5793C105.876 77.9489 105.882 78.2343 105.917 78.5147C105.952 78.751 105.999 78.9777 106.052 79.2769Z" fill="white"/>
<path d="M104.771 85.9915C104.41 85.0711 104.486 84.2567 104.584 83.4457C104.669 82.8061 105.032 82.5287 105.666 82.5412C107.296 82.5754 108.928 82.6239 110.555 82.6439C112.713 82.6726 114.873 82.6716 117.036 82.6849C117.227 82.6877 117.42 82.6976 117.613 82.7074C117.99 82.7214 118.233 82.9282 118.386 83.2537C118.758 84.0253 118.74 84.8367 118.643 85.6549C118.608 85.955 118.415 86.1949 118.105 86.2718C117.689 86.3677 117.262 86.4875 116.83 86.498C115.152 86.5606 113.469 86.6018 111.795 86.612C110.451 86.6153 109.108 86.5376 107.763 86.5338C106.755 86.5288 105.797 86.2651 104.771 85.9915ZM106.106 85.145C106.209 85.1927 106.295 85.2585 106.384 85.2647C109.754 85.4604 113.122 85.5171 116.494 85.3084C116.966 85.2762 117.454 85.1676 117.896 85.0084C118.055 84.9509 118.192 84.6473 118.229 84.4424C118.273 84.1921 118.109 83.9714 117.837 83.9314C117.46 83.8735 117.072 83.8395 116.689 83.8339C113.748 83.7824 110.808 83.7379 107.87 83.7006C107.251 83.6928 106.631 83.7147 106.051 83.8836C105.826 84.357 105.876 84.7597 106.106 85.145Z" fill="white"/>
</g>
<g clip-path="url(#clip1_1_5086)">
<path d="M201.756 91.1983C201.32 91.2837 200.949 91.468 200.558 91.5815C200.181 91.6915 199.808 91.8118 199.432 91.9255C199.037 92.0445 198.639 92.1599 198.204 92.2897C198.211 92.4432 198.217 92.5998 198.229 92.7577C198.396 94.7798 198.674 96.7866 199.031 98.7839C199.449 101.13 200.241 103.337 201.37 105.432C201.508 105.688 201.643 105.944 201.757 106.208C201.855 106.428 201.747 106.675 201.534 106.784C201.499 106.802 201.456 106.813 201.415 106.823C200.623 107.058 199.834 107.318 199.032 107.516C198.344 107.686 198.196 107.653 197.811 106.994C197.446 106.371 197.151 105.705 196.872 105.036C196.292 103.64 195.835 102.199 195.459 100.734C195.056 99.1674 194.831 97.5679 194.687 95.9595C194.602 94.9941 194.469 94.0286 194.628 93.0179C194.489 93.0307 194.388 93.026 194.295 93.0482C193.442 93.2354 192.575 93.2709 191.705 93.293C191.3 93.3054 190.929 93.1979 190.592 92.9674C189.807 92.433 189.322 91.6743 188.992 90.8079C188.866 90.4778 188.869 90.1202 188.894 89.7639C188.913 89.4538 189.073 89.2583 189.358 89.1705C189.635 89.0876 189.916 88.9991 190.199 88.965C191.027 88.8678 191.801 88.5724 192.597 88.3514C194.151 87.9172 195.708 87.4964 197.28 87.1391C199.681 86.5926 202.091 86.0954 204.5 85.6014C205.92 85.311 207.35 85.0896 208.794 84.9754C209.519 84.9174 210.232 84.952 210.957 85.0682C212.065 85.2439 212.843 86.7281 212.515 87.7009C212.166 88.7237 211.764 89.7163 211.268 90.6708C211.22 90.7626 211.162 90.8489 211.103 90.9352C210.827 91.3227 210.79 91.3342 210.26 91.1499C210.113 90.7965 210.062 90.4119 210.054 90.0171C210.042 89.5455 210.07 89.0661 209.924 88.5732C209.778 88.5592 209.638 88.5276 209.5 88.5344C209.337 88.5422 209.172 88.5751 209.01 88.6085C207.9 88.8416 206.789 89.0808 205.642 89.1859C205.628 89.2528 205.6 89.3136 205.608 89.3691C205.764 90.5584 205.875 91.7541 206.091 92.9333C206.441 94.866 206.798 96.7999 207.381 98.6818C207.589 99.3553 207.787 100.03 207.979 100.706C208.286 101.78 208.647 102.837 209.1 103.862C209.209 104.106 209.306 104.36 209.37 104.621C209.441 104.908 209.347 105.184 209.08 105.31C208.351 105.652 207.608 105.967 206.773 105.926C206.713 105.924 206.657 105.89 206.619 105.876C205.489 104.063 204.542 102.18 203.76 100.216C203.247 98.9283 202.829 97.6033 202.552 96.2436C202.33 95.171 202.135 94.0913 201.956 93.0116C201.87 92.5025 201.849 91.9846 201.796 91.4696C201.788 91.3983 201.775 91.3227 201.756 91.1983ZM208.512 104.538C208.518 104.46 208.534 104.412 208.522 104.381C208.461 104.229 208.398 104.073 208.32 103.928C207.807 102.929 207.435 101.876 207.116 100.803C206.603 99.0747 206.226 97.3173 205.887 95.5485C205.661 94.3706 205.38 93.2033 205.167 92.0248C205.002 91.1097 204.899 90.1851 204.783 89.261C204.737 88.8837 204.814 88.7822 205.162 88.663C205.261 88.6293 205.361 88.6053 205.461 88.5814C206.307 88.3831 207.15 88.1684 208 87.9934C208.668 87.8572 209.342 87.7728 210.027 87.9571C210.397 88.0549 210.609 88.2629 210.672 88.6214C210.717 88.8652 210.717 89.1126 210.749 89.3601C210.757 89.4283 210.801 89.4943 210.844 89.595C211.488 88.3505 211.968 86.8854 211.954 86.2073C211.879 86.157 211.799 86.0836 211.707 86.0491C211.534 85.982 211.356 85.9203 211.174 85.88C210.545 85.7324 209.91 85.6915 209.265 85.7279C207.461 85.8351 205.692 86.146 203.938 86.555C200.292 87.4053 196.652 88.2758 193.013 89.1561C192.189 89.3556 191.38 89.6088 190.568 89.8553C190.356 89.9197 190.159 90.0444 189.972 90.1679C189.84 90.2551 189.785 90.4151 189.871 90.5531C190.207 91.0973 190.485 91.6772 190.919 92.1621C191.19 92.4648 191.5 92.6043 191.9 92.5877C192.831 92.5494 193.76 92.53 194.667 92.2839C194.727 92.2677 194.785 92.2478 194.847 92.2383C195.144 92.1975 195.326 92.2981 195.397 92.6043C195.471 92.9238 195.514 93.256 195.53 93.5857C195.563 94.4138 195.553 95.2423 195.594 96.0655C195.662 97.3921 195.959 98.6861 196.218 99.9818C196.633 102.061 197.273 104.066 198.134 106.001C198.219 106.19 198.303 106.381 198.411 106.555C198.482 106.671 198.59 106.763 198.68 106.864C199.091 106.732 199.461 106.599 199.839 106.498C200.212 106.397 200.594 106.326 200.999 106.237C200.944 106.121 200.912 106.045 200.875 105.974C199.919 104.247 199.208 102.419 198.663 100.522C198.165 98.7846 197.87 97.0124 197.724 95.2164C197.655 94.3717 197.603 93.524 197.56 92.6782C197.551 92.4765 197.591 92.2659 197.635 92.0656C197.683 91.8282 197.829 91.6582 198.071 91.5904C198.151 91.5687 198.23 91.5404 198.311 91.5188C199.129 91.2992 199.948 91.0795 200.769 90.8635C201.167 90.7609 201.57 90.6626 201.977 90.5839C202.105 90.5594 202.248 90.6075 202.375 90.6178C202.455 91.0653 202.544 91.4671 202.595 91.8737C202.871 94.2289 203.551 96.4889 204.242 98.7447C204.364 99.1405 204.499 99.5328 204.666 99.9094C205.369 101.499 206.082 103.084 206.799 104.666C206.865 104.81 206.966 104.935 207.057 105.078C207.568 104.89 208.049 104.709 208.512 104.538Z" fill="white"/>
</g>
<g clip-path="url(#clip2_1_5086)">
<path d="M163.178 41.3197C163.168 41.0739 163.143 40.8336 163.11 40.5961C163.08 40.3413 163.059 40.091 163.022 39.839C162.976 39.5233 162.928 39.2003 162.882 38.8846C162.721 37.8055 162.466 36.7452 162.248 35.671C162.136 35.1143 162.024 34.5576 161.914 34.0082C161.804 33.4588 161.663 32.9133 161.539 32.3694C161.413 31.8429 161.287 31.3163 161.137 30.7909C160.984 30.2581 160.823 29.7281 160.663 29.1981C160.505 28.6754 160.365 28.1544 160.217 27.6362C160.047 27.0598 159.88 26.4907 159.703 25.9171C159.532 25.358 159.348 24.8118 159.148 24.2638C158.964 23.7594 158.753 23.2734 158.555 22.7746C158.469 22.5492 158.388 22.3138 158.294 22.0913C158.243 21.9777 158.191 21.8642 158.132 21.7534C158.1 21.6908 158.055 21.6163 158.015 21.5565C157.966 21.4921 157.895 21.3941 157.822 21.3554C157.802 21.3464 157.779 21.3301 157.759 21.3211C157.693 21.2796 157.623 21.2481 157.547 21.244C157.43 21.2219 157.31 21.2344 157.185 21.2569C157.046 21.285 156.905 21.3304 156.772 21.373C156.628 21.4111 156.482 21.4666 156.342 21.512C156.092 21.5989 155.837 21.6959 155.58 21.7857C155.345 21.8671 155.116 21.9458 154.881 22.0272C154.791 22.0532 154.704 22.0865 154.617 22.1197C154.602 22.1253 154.588 22.1308 154.573 22.1364C154.486 22.1696 154.401 22.2101 154.312 22.2607C154.153 22.3463 154.03 22.4599 153.918 22.6025C153.867 22.6638 153.836 22.7587 153.807 22.8363C153.783 22.9038 153.775 22.9903 153.77 23.0668C153.766 23.1853 153.783 23.2953 153.81 23.4099C153.837 23.5245 153.871 23.6363 153.898 23.7509C153.979 24.0282 154.062 24.3127 154.15 24.5873C154.29 25.0418 154.43 25.4963 154.582 25.938C154.737 26.387 154.884 26.8388 155.024 27.2933C155.093 27.5169 155.161 27.7405 155.23 27.9642C155.375 28.4751 155.512 28.9888 155.635 29.5081C155.751 30.0301 155.857 30.5477 155.955 31.068C156.054 31.5883 156.152 32.1086 156.226 32.63C156.303 33.1586 156.377 33.68 156.436 34.2069C156.503 34.731 156.555 35.2607 156.646 35.7838C156.743 36.3214 156.84 36.859 156.922 37.4022C157 37.9135 157.071 38.4276 157.125 38.94C157.179 39.4524 157.255 39.9564 157.33 40.4605C157.388 40.8963 157.422 41.3332 157.438 41.7684C157.45 42.413 157.48 43.0594 157.5 43.7012C157.511 44.0135 157.512 44.3213 157.495 44.6273C157.472 45.0026 157.446 45.3706 157.412 45.7414C157.362 46.3518 157.311 46.9622 157.185 47.5684C157.053 48.0763 156.905 48.5825 156.729 49.0825C156.558 49.5724 156.38 50.0651 156.151 50.5353C156.069 50.6915 155.984 50.8404 155.899 50.9893C155.794 51.1711 155.661 51.3467 155.535 51.5194C155.41 51.6922 155.281 51.8578 155.146 52.0261C155.034 52.1687 154.904 52.3097 154.782 52.4479C154.626 52.6072 154.472 52.7491 154.298 52.8821C154.143 52.9995 153.985 53.1097 153.825 53.2126C153.349 53.4938 152.827 53.718 152.302 53.893C152.173 53.9256 152.051 53.9554 151.929 53.9852C151.826 53.9748 151.72 53.9818 151.625 54.0178C151.611 54.0233 151.596 54.0289 151.589 54.0317C151.56 54.0428 151.541 54.0583 151.522 54.0739C151.397 54.0965 151.265 54.1218 151.138 54.1371C150.751 54.1929 150.356 54.227 149.97 54.2409C149.343 54.2553 148.724 54.225 148.108 54.1182C148.044 54.1013 147.982 54.0916 147.917 54.0747C147.713 54.0193 147.526 53.9238 147.347 53.8256C147.377 53.8391 147.41 53.8598 147.44 53.8733C147.118 53.7048 146.803 53.5335 146.501 53.3321C146.344 53.2256 146.194 53.1162 146.046 52.9895C145.923 52.8864 145.798 52.776 145.68 52.6628C145.683 52.6701 145.69 52.6673 145.693 52.6746C145.505 52.4881 145.325 52.2987 145.141 52.1022C144.958 51.9056 144.794 51.6934 144.633 51.4885C144.3 51.0742 143.998 50.6315 143.689 50.1915C143.567 50.0046 143.456 49.8222 143.349 49.6298C143.213 49.3819 143.07 49.1369 142.941 48.8862C142.668 48.366 142.409 47.8402 142.153 47.3216C141.932 46.873 141.689 46.4327 141.465 45.9768C141.212 45.4656 140.962 44.9616 140.73 44.442C140.564 44.0723 140.408 43.7071 140.272 43.3263C140.135 42.9455 139.998 42.5648 139.849 42.1968C139.548 41.429 139.225 40.6695 138.95 39.8834C138.809 39.4043 138.683 38.9196 138.549 38.4377C138.418 37.8967 138.253 37.3348 138.072 36.7713C137.904 36.244 137.732 35.7269 137.564 35.1997C137.408 34.7015 137.244 34.2061 137.065 33.7163C136.953 33.401 136.846 33.0756 136.734 32.7602C136.685 32.5875 136.628 32.4175 136.576 32.2375C136.516 32.0357 136.463 31.8311 136.403 31.6293C136.36 31.4956 136.315 31.3547 136.272 31.2211C136.258 31.1848 136.241 31.1412 136.228 31.1048C136.178 30.974 136.119 30.8632 136.04 30.7434C136.024 30.7244 136.009 30.7054 135.993 30.6863L135.99 30.679C135.976 30.5762 135.913 30.4755 135.824 30.4177C135.745 30.3644 135.623 30.3278 135.533 30.3538C135.217 30.4411 134.893 30.5312 134.582 30.6331C134.33 30.7128 134.082 30.807 133.83 30.8867C133.582 30.9564 133.323 31.0216 133.07 31.0767C132.826 31.1363 132.578 31.1641 132.334 31.1991C132.113 31.2331 131.882 31.3045 131.698 31.433C131.421 31.6221 131.273 31.9781 131.241 32.307C131.212 32.5594 131.212 32.8007 131.218 33.0565C131.227 34.0608 131.297 35.0748 131.435 36.0712C131.469 36.3332 131.509 36.5925 131.557 36.8491C131.605 37.1056 131.653 37.3621 131.701 37.6186C131.789 38.1344 131.887 38.6548 131.986 39.1751C132.172 40.1866 132.4 41.1989 132.632 42.2011C132.752 42.7131 132.865 43.2278 133 43.7343C133.157 44.2989 133.314 44.8635 133.5 45.417C133.843 46.4687 134.283 47.4916 134.735 48.5017C134.958 48.9994 135.198 49.4989 135.428 49.9939C135.544 50.2328 135.653 50.4744 135.769 50.7133C135.888 50.9594 136.007 51.2055 136.143 51.4533C136.261 51.6749 136.383 51.8864 136.515 52.1023C136.677 52.3737 136.834 52.6551 137.008 52.9137C137.142 53.1124 137.276 53.3111 137.422 53.4969C137.404 53.5371 137.408 53.5689 137.414 53.6081C137.435 53.75 137.55 53.8559 137.689 53.8697C137.798 54.003 137.914 54.1335 138.028 54.2567C138.403 54.6717 138.785 55.0839 139.202 55.4576C139.317 55.5635 139.433 55.6694 139.552 55.7653C139.569 55.8089 139.588 55.8598 139.605 55.9034C139.641 55.9979 139.741 56.0848 139.838 56.1225C139.926 56.1557 140.01 56.1571 140.1 56.1311C140.239 56.2114 140.37 56.2944 140.509 56.3747C140.757 56.5217 141.021 56.6459 141.275 56.7902C141.555 56.9335 141.834 57.0767 142.118 57.2099C142.729 57.5016 143.389 57.6828 144.049 57.8394C144.049 58.0143 144.049 58.1891 144.049 58.3639C144.054 58.4204 144.056 58.4695 144.097 58.5121C144.128 58.5502 144.178 58.5727 144.23 58.5778C144.334 58.5882 144.444 58.5047 144.447 58.4036C144.445 58.2461 144.453 58.0931 144.459 57.9328C144.908 58.0195 145.359 58.089 145.808 58.1512C146.063 58.1871 146.32 58.2057 146.577 58.2243C146.861 58.2492 147.153 58.2294 147.433 58.2223C147.707 58.2181 147.979 58.1893 148.248 58.1532C148.517 58.1171 148.79 58.0883 149.056 58.0449C149.604 57.9527 150.151 57.8604 150.691 57.7464C151.269 57.6257 151.848 57.5051 152.407 57.3335C152.569 57.2798 152.728 57.2361 152.89 57.1824C153.009 57.1453 153.124 57.1183 153.24 57.074C153.538 56.9603 153.832 56.8567 154.123 56.7458C154.384 56.646 154.648 56.5289 154.91 56.4292C155.154 56.3277 155.396 56.2189 155.637 56.1101C155.893 55.9958 156.139 55.8769 156.393 55.7553C156.885 55.5177 157.369 55.2582 157.801 54.9271C158.02 54.7602 158.25 54.5978 158.456 54.4191C158.689 54.222 158.922 54.0249 159.145 53.8234C159.356 53.6346 159.554 53.4341 159.743 53.2291C159.931 53.0241 160.119 52.8191 160.285 52.5978C160.453 52.3838 160.618 52.1625 160.753 51.9278C160.91 51.6601 161.058 51.3952 161.197 51.1258C161.458 50.6099 161.702 50.0923 161.953 49.5718C162.015 49.4486 162.066 49.3208 162.12 49.2003C162.229 48.942 162.342 48.691 162.432 48.4237C162.491 48.2512 162.532 48.0771 162.582 47.9002C162.626 47.7333 162.678 47.5636 162.713 47.3922C162.825 46.858 162.955 46.3255 163.013 45.7788C163.051 45.5064 163.089 45.2339 163.109 44.9597C163.134 44.6755 163.169 44.3957 163.176 44.1097C163.188 43.8137 163.205 43.5077 163.217 43.2117C163.233 42.9056 163.223 42.5934 163.222 42.2856C163.227 41.9505 163.199 41.6365 163.178 41.3197ZM132.651 36.049C132.497 35.1666 132.408 34.2765 132.357 33.3799C132.357 33.3134 132.354 33.2396 132.354 33.1732C132.352 33.0821 132.351 32.9911 132.342 32.9028C132.336 32.7134 132.335 32.514 132.369 32.318C132.375 32.2907 132.384 32.2706 132.398 32.2405C132.605 32.1282 132.825 32.0524 133.043 31.9692C133.264 31.8933 133.485 31.8174 133.709 31.7488C133.784 31.7284 133.857 31.7007 133.94 31.6774C133.847 32.0458 133.744 32.4097 133.634 32.7764C133.538 33.1129 133.446 33.4394 133.357 33.7732C133.257 34.1443 133.147 34.511 133.047 34.8822C132.998 35.0591 132.959 35.2405 132.91 35.4174C132.863 35.6016 132.814 35.7786 132.785 35.9645C132.754 36.1012 132.733 36.2425 132.709 36.3765C132.685 36.2692 132.668 36.1591 132.651 36.049ZM133.218 38.8468C133.14 38.4685 133.058 38.1001 132.98 37.7218C133.12 37.6937 133.226 37.5784 133.247 37.4371C133.3 36.9669 133.389 36.5002 133.485 36.0307C133.514 35.9113 133.536 35.7946 133.568 35.6824C133.567 35.6997 133.562 35.7098 133.56 35.7271C133.642 35.3961 133.724 35.0651 133.806 34.7341C133.88 34.4478 133.964 34.1659 134.046 33.8768C134.238 33.1792 134.447 32.4832 134.621 31.7839C134.645 31.6918 134.656 31.6125 134.613 31.5207C134.604 31.4989 134.592 31.4872 134.583 31.4654C134.717 31.4227 134.848 31.3728 134.989 31.3274C135.115 31.2876 135.237 31.2578 135.363 31.2179C135.369 31.2325 135.384 31.2515 135.39 31.266C135.395 31.2806 135.404 31.3024 135.409 31.3169C135.474 31.5752 135.525 31.839 135.583 32.1C135.498 32.0741 135.407 32.0755 135.32 32.1087C135.313 32.1115 135.305 32.1143 135.298 32.117C135.199 32.1631 135.099 32.2511 135.079 32.3505C134.926 32.9751 134.765 33.6024 134.619 34.2242C134.488 34.7741 134.356 35.3239 134.227 35.881C134.151 36.2265 134.064 36.5675 133.988 36.9131C133.883 37.3362 133.805 37.7655 133.71 38.1931C133.605 38.6826 133.503 39.1795 133.401 39.6763C133.335 39.3935 133.274 39.1252 133.218 38.8468ZM134.681 44.9334C134.534 44.4151 134.383 43.8897 134.243 43.3687C134.111 42.8695 134.008 42.3592 133.89 41.8545C133.86 41.7326 133.838 41.608 133.808 41.4861C133.847 41.3047 133.886 41.1233 133.925 40.9419C133.963 40.7777 133.997 40.6064 134.034 40.4423C134.108 40.0894 134.182 39.7366 134.263 39.3811C134.43 38.618 134.599 37.8622 134.759 37.1019C134.908 36.4873 135.052 35.8828 135.193 35.271C135.384 34.4823 135.572 33.6863 135.772 32.9021C135.778 32.9166 135.781 32.9239 135.779 32.9412C135.958 33.564 136.173 34.1729 136.367 34.7901C136.356 34.761 136.352 34.7292 136.341 34.7001C136.376 34.8119 136.41 34.9237 136.444 35.0355C136.447 35.0428 136.45 35.0501 136.452 35.0574C136.45 35.0501 136.45 35.0501 136.447 35.0428C136.551 35.4028 136.665 35.7674 136.776 36.1246C136.759 36.081 136.75 36.0346 136.733 35.991C136.762 36.0883 136.788 36.1783 136.824 36.2728C136.791 36.252 136.754 36.2413 136.712 36.2406C136.66 36.2354 136.596 36.2431 136.546 36.2625C136.509 36.2763 136.476 36.2974 136.445 36.3258C136.369 36.3882 136.336 36.4758 136.32 36.5651C136.04 38.1456 135.752 39.7289 135.438 41.306C135.301 42.0161 135.146 42.7244 135.029 43.4435C134.933 44.0214 134.837 44.5992 134.761 45.1861C134.728 45.0988 134.704 45.0161 134.681 44.9334ZM139.635 53.2525C139.588 53.587 139.562 53.9131 139.532 54.2493C139.349 54.0527 139.173 53.8533 138.99 53.6567C138.682 53.3079 138.396 52.9507 138.133 52.5678C138.15 52.4366 138.167 52.3054 138.183 52.1742C138.24 51.7113 138.306 51.2529 138.373 50.7945C138.49 49.9425 138.626 49.0994 138.752 48.2519C138.837 47.6868 138.943 47.1135 139 46.5423C139.041 46.1268 139.078 45.7214 139.12 45.3059C139.135 45.1501 139.146 45.0044 139.162 44.8486C139.181 44.6581 139.18 44.4587 139.189 44.2638C139.192 44.1208 139.162 43.999 139.069 43.8848C138.981 43.7851 138.865 43.7211 138.734 43.7045C138.657 43.7004 138.576 43.7063 138.504 43.734C138.329 43.8005 138.183 43.9643 138.174 44.1592C138.166 44.4206 138.155 44.6747 138.129 44.9344C138.098 45.246 138.069 45.5649 138.046 45.8737C138.009 46.2372 137.988 46.5952 137.931 46.9497C137.848 47.5393 137.765 48.1289 137.681 48.7185C137.618 49.1423 137.575 49.5751 137.519 49.9961C137.469 50.4316 137.436 50.8689 137.403 51.3062C137.37 51.2435 137.331 51.1836 137.299 51.121C137.047 50.6589 136.833 50.1829 136.615 49.6997C136.612 49.6924 136.612 49.6924 136.61 49.6851C136.625 49.6377 136.647 49.5875 136.66 49.5328C136.699 49.4178 136.736 49.2956 136.772 49.1734C136.835 48.9663 136.89 48.7621 136.943 48.5505C136.958 48.5031 136.959 48.4612 136.939 48.4103C136.923 48.3667 136.884 48.3314 136.837 48.3162C136.749 48.283 136.643 48.3318 136.61 48.4194C136.581 48.497 136.555 48.5818 136.527 48.6593C136.545 48.5108 136.57 48.3595 136.586 48.2037C136.654 47.728 136.72 47.245 136.796 46.7666C136.872 46.2462 136.958 45.7303 137.042 45.2072C137.136 44.6467 137.228 44.0789 137.322 43.5183C137.49 42.472 137.657 41.4258 137.817 40.3822C137.844 40.2136 137.702 40.0596 137.539 40.0469C137.487 40.0417 137.441 40.051 137.397 40.0677C137.368 40.0788 137.334 40.0999 137.308 40.1183C137.246 40.175 137.215 40.2453 137.196 40.3274C137.006 41.5322 136.816 42.7371 136.616 43.9374C136.432 45.0485 136.24 46.1623 136.084 47.2795C136.043 47.5866 135.994 47.8965 135.956 48.2108C135.751 47.7394 135.548 47.2506 135.355 46.7663C135.319 46.6718 135.286 46.5846 135.25 46.4901C135.261 46.4108 135.27 46.3242 135.281 46.245C135.325 45.9451 135.369 45.6453 135.416 45.3527C135.466 45.0256 135.516 44.6984 135.576 44.3757C135.643 43.9838 135.715 43.5818 135.782 43.1899C135.837 42.8773 135.903 42.5691 135.969 42.261C136.061 41.8261 136.146 41.394 136.228 40.9547C136.36 40.2965 136.482 39.6338 136.604 38.9711C136.734 38.2638 136.864 37.5565 136.991 36.8419C137.086 37.1555 137.191 37.4736 137.285 37.7873C137.43 38.2982 137.57 38.8192 137.708 39.3329C137.782 39.613 137.865 39.8976 137.953 40.1721C138.037 40.4566 138.142 40.7329 138.255 41.0063C138.467 41.5415 138.697 42.0784 138.916 42.6108C139.117 43.0923 139.29 43.5922 139.491 44.0737C139.867 44.9958 140.324 45.8875 140.785 46.7692C140.724 46.8505 140.691 46.9381 140.674 47.0448C140.55 47.6829 140.437 48.3255 140.317 48.9708C140.241 49.3828 140.162 49.7876 140.094 50.1968C139.998 50.7746 139.901 51.3525 139.813 51.9276C139.75 52.3759 139.693 52.8142 139.635 53.2525ZM148.765 57.0403C148.537 57.0771 148.311 57.0966 148.088 57.1233C148.093 57.1133 148.093 57.1133 148.097 57.1032C148.094 56.505 148.074 55.905 148.056 55.3123C148.056 55.2704 148.022 55.2251 147.99 55.2043C147.954 55.1763 147.909 55.1683 147.863 55.1777C147.856 55.1805 147.841 55.186 147.834 55.1888C147.805 55.1999 147.771 55.221 147.758 55.2511C147.73 55.2868 147.729 55.3287 147.728 55.3706C147.751 55.9532 147.78 56.5331 147.813 57.1203C147.811 57.1376 147.814 57.1448 147.826 57.1566C147.696 57.1646 147.566 57.1726 147.439 57.1879C147.323 57.1903 147.207 57.1928 147.099 57.1925C146.966 57.1932 146.83 57.1867 146.695 57.1801C146.527 57.1774 146.361 57.1574 146.188 57.1401C146.287 57.0941 146.36 56.9999 146.377 56.8932C146.484 56.1696 146.609 55.4478 146.726 54.7287C146.752 54.5355 146.594 54.3624 146.411 54.3407C146.352 54.3383 146.303 54.3404 146.252 54.3598C146.128 54.4069 146.047 54.5212 146.023 54.6551C145.965 55.027 145.907 55.3988 145.852 55.7779C145.78 56.1134 145.758 56.4714 145.751 56.8238C145.75 56.9076 145.763 56.9859 145.82 57.0475C145.835 57.0665 145.848 57.0783 145.868 57.0873C145.623 57.0558 145.378 57.0244 145.137 56.9829C144.914 56.9432 144.695 56.8934 144.472 56.8537C144.483 56.4666 144.498 56.0695 144.508 55.6824C144.524 54.9603 144.55 54.2426 144.567 53.5204C144.569 53.4612 144.557 53.4075 144.513 53.3577C144.479 53.3123 144.429 53.2898 144.367 53.2802C144.332 53.2767 144.3 53.2805 144.271 53.2916C144.198 53.3193 144.132 53.3862 144.131 53.47C144.106 54.5619 144.074 55.6566 144.049 56.7485C143.994 56.7361 143.947 56.7209 143.892 56.7084C143.678 56.6486 143.468 56.5787 143.251 56.5116C143.004 56.431 142.768 56.3376 142.537 56.2342C142.572 55.5383 142.611 54.8324 142.652 54.1337C142.701 53.2575 142.74 52.3767 142.769 51.4915C142.771 51.4323 142.771 51.3658 142.778 51.2966C142.781 51.1955 142.759 51.0954 142.687 51.0148C142.625 50.9386 142.531 50.8909 142.435 50.8778C142.376 50.8754 142.319 50.8802 142.268 50.8996C142.137 50.9495 142.024 51.0676 142.023 51.2179C141.988 52.1305 141.953 53.0431 141.918 53.9557C141.913 54.1824 141.898 54.4047 141.893 54.6315C141.888 54.8163 141.894 55.0057 141.889 55.1906C141.9 55.4364 141.908 55.6749 141.925 55.918C141.905 55.909 141.885 55.9 141.865 55.891C141.53 55.7107 141.192 55.5232 140.861 55.3328C140.828 55.3121 140.795 55.2913 140.765 55.2778C140.792 55.2176 140.817 55.1501 140.844 55.0898C140.895 54.962 140.844 54.8066 140.732 54.7326C140.664 54.6838 140.574 54.6679 140.489 54.6838C140.492 54.6492 140.496 54.6146 140.507 54.5772C140.536 54.3494 140.569 54.1288 140.598 53.901C140.664 53.4181 140.747 52.9368 140.82 52.4511C140.883 52.0273 140.956 51.608 141.03 51.1887C141.092 50.8068 141.159 50.4149 141.232 50.0375C141.34 49.4469 141.445 48.849 141.56 48.2555C141.619 48.3663 141.675 48.4698 141.734 48.5806C141.994 49.0891 142.269 49.592 142.559 50.0894C142.836 50.5751 143.165 51.024 143.494 51.4729C143.651 51.6879 143.808 51.9028 143.987 52.1094C144.158 52.3188 144.333 52.5355 144.526 52.7366C144.735 52.9567 144.948 53.1668 145.173 53.3641C145.385 53.5496 145.593 53.7451 145.826 53.8977C146.042 54.0486 146.267 54.1794 146.496 54.3001C146.632 54.3731 146.768 54.4462 146.901 54.5119C147.158 54.6389 147.407 54.7686 147.679 54.8482C148.24 55.009 148.841 55.013 149.42 55.0252C149.504 55.0266 149.595 55.0252 149.679 55.0265C149.665 55.0567 149.654 55.0941 149.644 55.1315C149.531 55.7322 149.426 56.3301 149.359 56.9387C149.146 56.97 148.96 57.0074 148.765 57.0403ZM151.842 56.4415C151.759 56.4647 151.674 56.4807 151.591 56.5039C151.537 56.516 151.491 56.5254 151.437 56.5375C151.45 56.2661 151.456 55.9975 151.466 55.7188C151.466 55.6523 151.424 55.5851 151.354 55.5782C151.337 55.5765 151.313 55.5776 151.298 55.5831C151.254 55.5997 151.219 55.6382 151.221 55.6873C151.209 55.9833 151.2 56.2866 151.188 56.5826C150.888 56.6471 150.588 56.7116 150.285 56.7688C150.167 56.7886 150.057 56.8056 149.94 56.8253C150.037 56.2721 150.144 55.7233 150.244 55.1773C150.254 55.1153 150.236 55.0471 150.207 54.9918C150.474 54.973 150.746 54.9442 151.011 54.9181C151.114 54.9039 151.217 54.8897 151.312 54.8782C151.48 55.4054 151.63 55.9309 151.842 56.4415ZM154.59 22.9458C154.581 22.9659 154.572 22.9859 154.556 23.0088C154.562 22.9814 154.578 22.9586 154.59 22.9458ZM161.961 40.3102C161.986 40.5085 162.007 40.7169 162.033 40.9153C162.05 41.0254 162.067 41.1355 162.07 41.2511C162.088 41.5606 162.106 41.8701 162.124 42.1796C162.128 42.5611 162.132 42.9427 162.118 43.3224C162.109 43.5593 162.099 43.7961 162.097 44.0301C162.085 44.2842 162.064 44.5338 162.045 44.7907C162.018 45.1761 161.972 45.5597 161.92 45.946C161.892 46.1565 161.864 46.367 161.826 46.573C161.774 46.8092 161.733 47.0498 161.681 47.2859C161.598 47.6342 161.521 47.9798 161.41 48.3219C161.339 48.549 161.242 48.7772 161.151 48.9953C161.1 49.1231 161.044 49.2609 160.993 49.3886C160.86 49.6971 160.726 49.9984 160.583 50.3024C160.475 50.5434 160.362 50.7698 160.244 51.0063C160.077 51.3114 159.903 51.6192 159.693 51.899C159.572 52.0618 159.448 52.2172 159.324 52.3727C159.21 52.5081 159.092 52.6363 158.974 52.7644C158.998 52.7388 159.029 52.7104 159.049 52.6775C158.91 52.8139 158.773 52.9576 158.624 53.0896C158.467 53.2243 158.313 53.3663 158.146 53.4965C157.765 53.8082 157.379 54.1054 156.972 54.369C156.237 54.8238 155.426 55.1415 154.63 55.4782C154.079 55.7135 153.506 55.9151 152.941 56.114C152.823 55.6093 152.66 55.1139 152.506 54.6231C152.535 54.612 152.567 54.6081 152.588 54.5998C152.846 54.5101 153.1 54.4131 153.346 54.2942C153.588 54.1855 153.829 54.0767 154.053 53.9416C154.302 53.7882 154.549 53.6274 154.78 53.4477C155.004 53.2707 155.201 53.0875 155.396 52.8797C155.776 52.477 156.112 52.049 156.44 51.5991C156.747 51.1822 156.991 50.7065 157.192 50.23C157.393 49.7536 157.575 49.2682 157.736 48.7737C157.893 48.3139 158.024 47.8479 158.117 47.3711C158.204 46.9217 158.243 46.4571 158.278 46.0025C158.296 45.7875 158.316 45.5798 158.334 45.3648C158.351 45.1252 158.375 44.8829 158.382 44.6388C158.399 44.1579 158.388 43.6708 158.37 43.1865C158.356 42.6921 158.35 42.195 158.34 41.6906C158.329 41.137 158.283 40.5799 158.206 40.0267C158.172 39.7647 158.129 39.4981 158.096 39.236C158.061 38.9913 158.04 38.741 158.01 38.4862C157.953 37.9666 157.872 37.448 157.783 36.9321C157.691 36.3845 157.587 35.8496 157.495 35.302C157.406 34.7861 157.357 34.2637 157.293 33.7469C157.167 32.6958 157.009 31.6486 156.812 30.608C156.711 30.0804 156.627 29.5545 156.494 29.0308C156.363 28.4897 156.207 27.9497 156.036 27.4152C155.871 26.8952 155.689 26.3736 155.5 25.8547C155.408 25.6148 155.317 25.3749 155.225 25.135C155.133 24.8705 155.04 24.606 154.948 24.3416C154.818 23.958 154.678 23.57 154.556 23.1836C154.544 23.13 154.532 23.0763 154.522 23.0299C154.527 23.0199 154.524 23.0126 154.529 23.0026C154.533 22.9925 154.54 22.9898 154.545 22.9797C154.576 22.9513 154.606 22.9229 154.647 22.899C154.806 22.8135 154.981 22.7469 155.151 22.6905C155.321 22.634 155.491 22.5775 155.661 22.521C155.971 22.4191 156.282 22.3172 156.589 22.2254C156.808 22.1668 157.024 22.101 157.25 22.0815C157.392 22.3439 157.485 22.633 157.593 22.9165C157.7 23.2173 157.81 23.5081 157.924 23.8061C158.04 24.1114 158.167 24.4212 158.276 24.7293C158.391 25.052 158.498 25.3774 158.598 25.7055C158.742 26.1919 158.886 26.6783 159.02 27.1602C159.171 27.7102 159.305 28.2586 159.464 28.8059C159.613 29.3487 159.766 29.8814 159.922 30.4215C160.07 30.9397 160.188 31.469 160.311 31.9883C160.435 32.5321 160.567 33.0732 160.681 33.6126C160.801 34.191 160.908 34.775 161.021 35.3563C161.128 35.8984 161.235 36.4405 161.351 36.9871C161.413 37.28 161.475 37.5729 161.536 37.8658C161.589 38.1122 161.634 38.3615 161.669 38.6062C161.79 39.1847 161.895 39.7442 161.961 40.3102Z" fill="white"/>
<path d="M153.698 19.2973C153.557 19.3427 153.413 19.3808 153.27 19.4189C153.119 19.4598 152.998 19.5142 152.908 19.6486C152.826 19.7628 152.791 19.9096 152.819 20.0488C152.84 20.1907 152.924 20.325 153.048 20.4109C153.153 20.4877 153.322 20.5396 153.449 20.4997C153.697 20.4301 153.952 20.3576 154.198 20.2807C154.487 20.1871 154.763 20.0818 155.031 19.9547C155.328 19.8164 155.602 19.6619 155.878 19.4901C156.072 19.3661 156.25 19.1985 156.367 19.0039C156.505 18.7764 156.548 18.5185 156.5 18.262C156.447 17.9909 156.287 17.7687 156.085 17.5877C155.97 17.4818 155.838 17.3987 155.711 17.3056C155.417 17.1015 155.127 16.8873 154.837 16.673C154.476 16.4028 154.11 16.1425 153.765 15.8494C153.45 15.5452 153.166 15.1953 152.919 14.8315C152.848 14.7089 152.793 14.5881 152.743 14.4573C152.717 14.3673 152.706 14.2717 152.694 14.1762C152.695 14.1343 152.699 14.0997 152.706 14.055C152.704 14.0477 152.711 14.045 152.708 14.0377C152.733 13.9948 152.762 13.9591 152.79 13.9234C152.839 13.8794 152.889 13.8355 152.942 13.7987C153.045 13.7426 153.152 13.6938 153.261 13.6522C153.494 13.5881 153.736 13.5458 153.979 13.528C154.07 13.5266 154.171 13.5297 154.268 13.5428C154.469 13.5663 154.663 13.4423 154.731 13.2498C154.815 13.0344 154.704 12.7437 154.463 12.6776C154.333 12.6437 154.204 12.6098 154.067 12.5787C153.916 12.5531 153.763 12.5449 153.612 12.5439C153.438 12.5439 153.268 12.5585 153.102 12.5804C152.943 12.5995 152.79 12.6577 152.632 12.7014C152.624 12.7041 152.603 12.7125 152.581 12.7208C152.443 12.7734 152.308 12.8579 152.189 12.9369C152.057 13.0287 151.946 13.1295 151.842 13.2521C151.633 13.49 151.523 13.7902 151.502 14.1063C151.484 14.4296 151.568 14.7388 151.675 15.0396C151.73 15.185 151.817 15.3265 151.909 15.4581C151.957 15.5398 152.009 15.6114 152.069 15.6803C152.283 15.9568 152.504 16.2306 152.741 16.4815C153.011 16.7532 153.315 17.0038 153.617 17.2298C153.818 17.3862 154.024 17.5326 154.225 17.689C154.398 17.8146 154.571 17.9402 154.751 18.0631C154.954 18.2022 155.161 18.3313 155.36 18.4804C155.291 18.54 155.219 18.5923 155.14 18.6474C154.689 18.9276 154.203 19.1379 153.698 19.2973ZM155.391 18.5185C155.389 18.5358 155.385 18.5458 155.38 18.5559C155.382 18.5386 155.386 18.5285 155.391 18.5185Z" fill="white"/>
<path d="M130.391 29.0335C130.611 28.9995 130.812 28.8727 130.935 28.6927C131.065 28.5098 131.093 28.2993 131.077 28.0809C131.042 27.7278 131.004 27.3674 130.962 27.017C130.934 26.7449 130.905 26.4728 130.861 26.2062C130.809 25.8933 130.753 25.5731 130.7 25.2601C130.695 25.2456 130.699 25.2355 130.694 25.221C130.906 25.34 131.118 25.4591 131.321 25.5982C131.612 25.7951 131.896 25.9947 132.181 26.1944C132.452 26.3823 132.724 26.5702 133 26.7481C133.131 26.8311 133.263 26.9142 133.399 26.9872C133.515 27.0512 133.621 27.1107 133.731 27.1602C133.895 27.2394 134.129 27.3083 134.309 27.2563C134.436 27.2164 134.537 27.1776 134.611 27.0661C134.657 26.9903 134.696 26.9172 134.722 26.8324C134.773 26.6382 134.775 26.446 134.763 26.2421C134.758 25.9444 134.714 25.6532 134.667 25.3548C134.609 24.9854 134.556 24.606 134.496 24.2293C134.394 23.5688 134.306 22.9028 134.226 22.2339C134.191 21.9227 134.152 21.6042 134.124 21.2902C134.115 21.1354 133.995 20.9731 133.871 20.8873C133.744 20.7942 133.579 20.7569 133.423 20.7832C133.384 20.7898 133.345 20.7964 133.301 20.813C133.185 20.8574 133.09 20.9353 133.02 21.0368C132.922 21.1739 132.904 21.3224 132.919 21.4917C132.964 21.9158 133.063 22.3277 133.147 22.7452C133.218 23.0845 133.282 23.4265 133.356 23.7731C133.444 24.1805 133.533 24.588 133.622 24.9954C133.701 25.3565 133.783 25.7248 133.834 26.097C133.691 25.9848 133.548 25.8727 133.413 25.7578C133.145 25.5353 132.873 25.3228 132.607 25.1076C132.064 24.6653 131.516 24.233 130.919 23.8693C130.649 23.706 130.371 23.5455 130.042 23.5127C129.949 23.5068 129.848 23.5037 129.758 23.5297C129.699 23.5519 129.641 23.5741 129.58 23.589C129.513 23.6312 129.439 23.6763 129.372 23.7185C129.255 23.8048 129.168 23.971 129.111 24.0842C129.048 24.2248 129.018 24.3861 129 24.5346C128.988 24.6558 129.006 24.7905 129.008 24.9061C129.017 24.9944 129.016 25.0782 129.024 25.1665C129.045 25.3503 129.069 25.5241 129.097 25.7051C129.145 26.0281 129.203 26.3556 129.251 26.6786C129.297 26.9943 129.325 27.3083 129.36 27.6196C129.385 27.8598 129.413 28.1073 129.438 28.3476C129.455 28.566 129.609 28.7737 129.779 28.8921C129.952 29.0177 130.181 29.072 130.391 29.0335Z" fill="white"/>
</g>
<g clip-path="url(#clip3_1_5086)">
<path d="M83.1353 33.9722C82.6541 29.4175 81.6208 24.9374 79.9571 20.6663C79.4125 19.2637 78.8231 17.2344 77.4056 16.4324C77.4019 16.4063 77.4056 16.3802 77.3981 16.3578C77.3869 16.3019 77.3683 16.2496 77.3534 16.1974C77.3347 16.0892 77.3086 15.9811 77.2676 15.8803C77.0475 15.3581 76.5737 15.0821 76.0888 15.0783C75.7419 14.9142 75.3204 15.0485 75.0257 15.276C74.5557 15.6416 74.2946 16.2459 74.2759 16.8465C71.7803 18.8198 71.0343 22.1845 70.7918 25.2545C70.7694 25.5641 70.7545 25.8737 70.7359 26.1834C70.5232 28.0373 70.4785 29.9024 70.5009 31.6407C70.568 37.1317 71.1835 42.6227 72.0303 48.0465C72.0303 48.0502 72.034 48.0539 72.034 48.0577C72.1086 48.6881 72.3138 49.3334 72.463 49.9191C72.504 50.0981 72.5451 50.2772 72.5898 50.4525C72.7316 51.1165 72.8808 51.8775 73.1643 52.493C73.6194 53.944 74.2088 55.3242 75.0928 56.5515C75.4808 57.2528 75.9172 57.9205 76.4208 58.5173C77.6369 59.9572 79.1961 59.3119 80.3712 58.1369C82.8854 55.6227 82.96 51.359 83.2211 48.0502C83.5941 43.365 83.6277 38.6462 83.1353 33.9722ZM82.8481 43.6858C82.7846 45.7001 82.6504 47.7108 82.4564 49.7176C82.2923 51.4336 82.1169 53.1719 81.576 54.8169C81.0986 56.268 79.9944 58.439 78.2934 58.7486C76.8647 59.006 75.9918 56.6895 75.5069 56.0255C73.0412 51.3254 72.4854 45.8717 71.9072 40.6978C71.508 37.1354 71.3029 33.5544 71.3327 29.9696C71.3476 28.3096 71.3029 26.2356 71.5491 24.1727C71.6573 23.6692 71.7766 23.1693 71.9184 22.6732C72.4108 20.9349 73.1083 18.9019 74.3953 17.559C74.69 18.3162 75.5293 18.5736 76.2828 18.2603C76.8423 18.029 77.2676 17.544 77.3869 16.9733C77.4429 17.0144 77.4951 17.0479 77.5511 17.0927C78.3419 17.7902 78.7522 18.9093 79.1439 19.8568C80.677 23.5423 81.6469 27.4554 82.2214 31.3983C82.807 35.4643 82.9786 39.5825 82.8481 43.6858Z" fill="white"/>
<path d="M92.2862 22.7479C92.0177 22.0093 91.4656 21.5803 90.8128 21.3602C90.7979 21.2707 90.7382 21.1886 90.6151 21.1625C87.1534 20.3605 83.964 22.3525 81.4349 24.516C81.1999 24.7175 80.9686 24.9264 80.7373 25.1315C79.275 26.2916 77.9284 27.5786 76.7123 28.8245C72.8739 32.7562 69.4271 37.0759 66.1893 41.5074C66.1855 41.5112 66.1893 41.5149 66.1855 41.5186C65.7938 42.0147 65.4805 42.6153 65.1746 43.1376C65.0776 43.2942 64.9806 43.4472 64.8874 43.6038C64.5181 44.1746 64.0854 44.8162 63.8504 45.4541C63.1454 46.8007 62.5858 48.1958 62.3433 49.6879C62.1233 50.4563 61.9591 51.2397 61.892 52.0193C61.7316 53.8994 63.2946 54.5447 64.9545 54.5447C65.8796 54.5447 66.7749 54.3396 67.6329 54.0038C67.8716 54.3284 68.1961 54.582 68.5804 54.6977C69.7293 55.0371 70.7029 53.9703 70.6357 52.8698C70.6245 52.702 70.591 52.5304 70.5387 52.3625C71.8257 51.4374 73.0119 50.3594 74.1012 49.4305C77.6748 46.3829 81.0395 43.0704 83.9938 39.4147C86.8736 35.8523 89.3095 31.9542 91.156 27.7576C91.7864 26.314 92.8756 24.3594 92.2862 22.7479ZM91.1522 26.6087C89.6303 30.298 87.5525 33.7522 85.1689 36.9453C82.7106 40.2391 79.9167 43.2681 76.925 46.077C75.4552 47.4572 73.937 48.7815 72.3815 50.0647C71.6839 50.6391 70.9827 51.2136 70.2478 51.7433C69.8449 51.1353 69.1735 50.71 68.4274 50.904C67.853 51.0532 67.5135 51.553 67.3829 52.1275C67.1964 52.5341 67.1927 52.9929 67.3344 53.4145C65.9841 53.9516 64.2197 54.3134 63.0558 53.504C61.8659 52.6759 62.8805 50.419 63.0111 49.6096C64.589 44.5401 68.0544 40.2914 71.3035 36.2254C73.5416 33.4239 75.929 30.7456 78.4842 28.2314C79.6667 27.0675 81.1029 25.5717 82.7367 24.2848C83.1694 24.005 83.6059 23.7364 84.0573 23.4865C85.7023 22.5688 87.7316 21.5691 89.6601 21.6102C89.7273 21.6102 89.7907 21.6139 89.8578 21.6213C89.9623 21.6325 90.0704 21.6475 90.1786 21.6624C91.1373 21.8302 91.9132 22.4308 91.9841 23.5238C92.0438 24.5795 91.5402 25.6612 91.1522 26.6087Z" fill="white"/>
<path d="M98.3371 35.9232C98.3894 35.8486 98.4043 35.7479 98.3409 35.6435C96.4608 32.6294 92.7977 31.7826 89.4777 31.5215C89.1681 31.4991 88.8585 31.4842 88.5489 31.4655C86.695 31.2529 84.8298 31.2082 83.0915 31.2305C77.6006 31.2977 72.1096 31.9132 66.6858 32.76C66.6821 32.76 66.6783 32.7637 66.6746 32.7637C66.0442 32.8383 65.3988 33.0435 64.8132 33.1927C64.6341 33.2337 64.4551 33.2747 64.2798 33.3195C63.6158 33.4612 62.8548 33.6105 62.2393 33.894C60.7882 34.349 59.408 34.9384 58.1808 35.8225C57.4795 36.2105 56.8118 36.6469 56.2149 37.1505C54.775 38.3666 55.4204 39.9258 56.5954 41.1008C59.1096 43.615 63.3733 43.6896 66.6821 43.9508C71.3673 44.3238 76.0823 44.3611 80.7601 43.865C84.8373 43.4323 88.8473 42.5556 92.7044 41.1866C92.7716 41.2687 92.8499 41.347 92.9357 41.4142C93.2117 41.6231 93.5251 41.7275 93.8347 41.7424C94.0436 41.8506 94.3271 41.8282 94.5211 41.7238C94.6367 41.6604 94.7374 41.5783 94.8195 41.4813C95.0769 41.3209 95.297 41.0971 95.4536 40.8173C95.5842 40.5861 95.6588 40.3287 95.6774 40.0638C96.8003 39.5975 97.9156 38.982 98.3968 37.945C98.7288 37.2325 98.6467 36.5424 98.3371 35.9232ZM97.6358 38.2808C97.1248 38.8627 96.3862 39.2357 95.6588 39.549C95.5581 38.9522 95.2074 38.3927 94.6852 38.0905C93.6071 37.4638 92.7193 38.4561 92.4881 39.4483C92.4769 39.4894 92.4731 39.5341 92.4657 39.5752C92.2978 39.9445 92.3053 40.3958 92.4657 40.7838C89.5038 41.8021 86.4301 42.5034 83.334 42.9511C79.268 43.5404 75.1498 43.7083 71.0465 43.5815C69.0321 43.5181 67.0215 43.3838 65.0146 43.1898C63.2987 43.0257 61.5604 42.8503 59.9153 42.3094C58.4643 41.832 56.2932 40.7278 55.9836 39.0268C55.7262 37.5981 58.0427 36.7215 58.7067 36.2403C63.4069 33.7746 68.8605 33.2188 74.0344 32.6406C77.5968 32.2414 81.1779 32.0363 84.7627 32.0661C86.4226 32.081 88.4967 32.0363 90.5595 32.2825C91.0631 32.3907 91.563 32.51 92.0591 32.6518C93.872 33.1666 96.0132 33.894 97.3486 35.2891C97.3934 35.3376 97.4381 35.3861 97.4829 35.4346C97.55 35.5166 97.6135 35.6024 97.6806 35.6882C98.2327 36.4865 98.3595 37.4564 97.6358 38.2808Z" fill="white"/>
<path d="M75.3171 44.7267C78.8795 47.6064 82.7776 50.0423 86.9742 51.8888C88.414 52.5192 90.3687 53.6085 91.9765 53.0191C92.715 52.7505 93.144 52.1984 93.3641 51.5456C93.4536 51.5307 93.5357 51.471 93.5618 51.3479C94.3638 47.8862 92.3719 44.6968 90.2083 42.1677C90.0069 41.9327 89.798 41.7014 89.5928 41.4702C88.4327 40.0079 87.1458 38.6613 85.8998 37.4452C81.9681 33.6105 77.6485 30.1637 73.2206 26.9258C73.2169 26.9221 73.2132 26.9258 73.2095 26.9221C72.7133 26.5304 72.1128 26.2171 71.5905 25.9112C71.4338 25.8142 71.2809 25.7172 71.1242 25.624C70.5535 25.2547 69.9119 24.822 69.274 24.5869C67.9274 23.8819 66.5323 23.3224 65.0402 23.0799C64.2717 22.8598 63.4884 22.6957 62.7087 22.6286C60.8287 22.4682 60.1833 24.0311 60.1833 25.6911C60.1833 29.2498 63.1452 32.3123 65.2976 34.8377C68.3526 38.4076 71.6614 41.7686 75.3171 44.7267ZM68.6511 37.6541C67.2709 36.1844 65.9466 34.6661 64.6634 33.1106C63.5667 31.7789 62.4625 30.4286 61.6792 28.8842C60.9891 27.5227 60.2356 25.2062 61.2204 23.7849C62.0485 22.595 64.3053 23.6096 65.1148 23.7402C70.1842 25.3181 74.433 28.7835 78.499 32.0326C81.3004 34.2707 83.9788 36.6581 86.493 39.2133C87.6568 40.3958 89.1526 41.832 90.4396 43.4658C90.7194 43.8986 90.9879 44.335 91.2379 44.7864C92.1555 46.4314 93.1552 48.4607 93.1142 50.3892C93.1142 50.4564 93.1105 50.5198 93.103 50.5869C93.0918 50.6914 93.0769 50.7996 93.062 50.9077C92.8941 51.8664 92.2935 52.6423 91.2006 52.7132C90.1486 52.7803 89.0668 52.2767 88.1194 51.8851C84.4301 50.3631 80.9759 48.2854 77.7828 45.9017C74.4927 43.4397 71.46 40.6458 68.6511 37.6541Z" fill="white"/>
<path d="M81.3603 37.031C80.8045 33.4574 75.8134 32.827 73.7431 35.4643C73.426 35.8672 73.1985 36.3447 73.0605 36.852C72.5159 38.4038 72.9598 40.2577 74.713 41.3395C74.9816 41.5074 75.2688 41.6305 75.5598 41.72C76.026 41.8804 76.511 41.9475 76.9735 41.8729C79.3758 41.7088 81.7483 39.5378 81.3603 37.031ZM76.6527 40.9926C76.123 40.9105 75.6157 40.8322 75.1233 40.53C76.1865 40.7949 77.507 40.6569 78.3537 40.2018C78.4507 40.1495 78.4395 39.9668 78.3202 39.9518C77.6711 39.8586 77.0407 40.0078 76.3879 40.0339C75.7202 40.06 75.0786 39.9556 74.422 39.8996C74.3176 39.7653 74.2318 39.6236 74.1535 39.4706C75.2875 39.7616 76.8206 39.8101 77.6972 39.1274C77.7532 39.0827 77.7159 38.9932 77.6562 38.9782C77.0929 38.8216 76.5073 38.9932 75.9365 39.0417C75.28 39.0976 74.6123 39.0864 73.9557 38.9932C73.8662 38.7171 73.8177 38.4262 73.7991 38.1352C74.9555 38.691 76.7572 38.9782 77.6972 37.9934C77.7942 37.8927 77.7159 37.7547 77.5928 37.7398C76.9623 37.6726 76.3319 37.9226 75.7015 37.9561C75.0636 37.9934 74.4071 37.9188 73.7991 37.7137C73.8177 37.4115 73.8849 37.1168 73.9856 36.8333C74.9443 37.695 76.593 37.6241 77.686 37.031C77.7457 36.9975 77.7382 36.8893 77.6674 36.8781C76.5893 36.6916 75.0935 37.1392 74.1497 36.464C74.1796 36.4044 74.2094 36.3447 74.2467 36.285C74.4071 36.0276 74.6123 35.8038 74.8473 35.6098C75.6418 36.658 77.2682 36.8632 78.3948 36.0649C78.488 35.9978 78.4507 35.8709 78.3388 35.8597C77.2906 35.7478 76.0186 36.091 75.1606 35.3785C75.5821 35.1062 76.0745 34.9272 76.5819 34.8339C76.746 34.9868 76.9288 35.1099 77.1787 35.2032C77.6636 35.3785 78.2194 35.4046 78.7193 35.2778C78.8126 35.2517 78.8461 35.0988 78.7491 35.054C78.4918 34.9384 78.2045 34.8637 77.9136 34.7966C79.208 34.9645 80.3457 35.7478 80.4763 37.2213C80.6628 39.3065 78.6484 40.9889 76.6527 40.9926Z" fill="white"/>
</g>
<g clip-path="url(#clip4_1_5086)">
<path d="M24.8403 44.7284C22.4913 38.1931 20.7392 32.7235 19.0584 27.2295C18.3662 24.9669 17.6366 22.7115 16.9325 20.4473C16.6223 19.4547 16.3478 18.4498 16.0376 17.4571C15.8912 16.9778 15.6988 16.5141 15.5473 16.0364C15.0769 14.5577 14.8522 14.3327 16.5382 13.5355C17.8999 12.8888 19.2893 12.3067 20.6977 11.7636C21.4979 11.4565 22.3484 11.2802 23.1833 11.058C23.355 11.0108 23.539 11.0163 23.7145 11.0133C24.4401 11.0048 24.9568 11.3181 25.2188 12.0028C25.4253 12.5413 25.6352 13.073 25.806 13.6238C26.6769 16.3603 27.5173 19.1073 28.4138 21.8352C29.8342 26.1658 31.2819 30.4928 32.733 34.813C34.4049 39.7806 36.1075 44.7379 37.7845 49.7038C39.0962 53.582 40.4112 57.4534 41.6668 61.3508C42.3721 63.5349 42.9753 65.7537 43.6041 67.9639C43.7211 68.3736 43.7668 68.8077 43.8209 69.2332C43.9163 69.9633 43.6582 70.575 43.1217 71.0711C42.5902 71.5654 41.9883 71.97 41.2999 72.1877C40.139 72.5553 38.9624 72.877 37.7825 73.2056C37.5802 73.2632 37.3553 73.2546 37.1424 73.2646C35.964 73.3308 35.1325 72.8119 34.6701 71.7403C34.3723 71.0507 34.1066 70.3388 33.8649 69.6301C32.9848 67.0504 32.159 64.4464 31.2331 61.8822C30.0638 58.6384 28.8198 55.4258 27.6167 52.1993C26.5437 49.321 25.4879 46.4597 24.8403 44.7284ZM19.4628 23.9269C19.788 23.8957 20.1386 23.8557 20.4876 23.8277C21.2027 23.7716 21.9144 23.7223 22.6296 23.6832C22.8084 23.6735 22.9943 23.7011 23.0235 23.9701C22.1279 24.7651 20.8716 24.6529 19.7835 25.2006C19.8474 25.8049 20.0762 26.3757 20.2795 26.9381C20.481 27.4955 20.4855 28.1428 20.9862 28.6094C21.9962 28.3332 22.9662 27.9397 24.0153 27.9119C24.0245 28.0055 24.0575 28.1024 24.0255 28.1418C23.3127 29.0224 22.1654 29.1463 21.2765 29.6772C21.3837 30.6253 22.0363 32.5883 22.4984 33.3755C23.7472 33.3991 24.8313 32.5227 26.3069 32.5771C26.1446 32.752 26.0787 32.8257 26.0059 32.896C25.114 33.7183 23.9094 33.9414 22.8773 34.4529C22.9411 35.2905 23.4164 36.7505 23.9653 37.7756C24.5439 37.6864 25.1446 37.5953 25.7435 37.4991C27.0418 37.2838 27.0418 37.2838 27.6213 37.5643C26.6955 38.4208 25.3984 38.3226 24.4006 38.8679C24.5213 39.8057 24.9767 41.1074 25.492 41.9504C25.7796 41.9092 26.0961 41.8525 26.4093 41.8197C27.4085 41.7121 28.4026 41.6064 29.4036 41.5039C29.5465 41.4893 29.6883 41.5377 29.7052 41.771C28.5451 42.4912 27.1591 42.5827 25.8589 43.0092C25.8359 43.626 26.1597 44.1246 26.3321 44.6634C26.4959 45.1767 26.7004 45.6761 26.8998 46.1772C27.1044 46.6937 27.2633 47.2428 27.5814 47.6579C28.367 47.4582 29.0502 47.2251 29.753 47.1163C30.4285 47.011 31.0818 46.6402 31.9078 46.8593C31.693 47.0805 31.5734 47.2636 31.4038 47.367C30.6711 47.8389 29.8571 48.1223 29.0153 48.3241C28.6735 48.4066 28.3334 48.4942 27.9967 48.5749C28.1785 49.7252 29.0732 51.9642 29.6283 52.657C31.0208 52.2674 32.45 52.0188 33.9785 51.8446C33.8202 52.3482 33.4878 52.5584 33.1311 52.6972C32.4634 52.9591 31.7801 53.1751 31.0985 53.3962C30.7297 53.5164 30.3539 53.6161 29.9918 53.7226C30.1317 54.7164 31.1581 57.5081 31.6485 58.2116C32.036 58.0795 32.4388 57.9421 32.8466 57.8029C33.2188 57.6759 33.5926 57.537 33.9683 57.4203C34.3592 57.2983 34.7447 57.1269 35.4072 57.1001C34.4229 58.3693 33.017 58.5359 31.8774 59.2662C32.298 60.466 32.6437 61.6628 33.1338 62.799C35.8933 62.0454 35.8933 62.0454 36.705 62.1556C36.6716 62.258 36.6674 62.379 36.5997 62.4476C35.7986 63.3527 34.5762 63.4567 33.5935 63.9797C33.7243 64.897 34.4221 66.9926 34.8795 67.8326C35.0582 67.5724 35.2047 67.3346 35.5928 67.2876C36.4438 67.1794 37.2874 66.9827 38.1364 66.8353C38.2981 66.8087 38.465 66.8143 38.6797 66.8094C38.5875 67.2734 38.3081 67.5053 37.9888 67.6541C37.5032 67.8823 37.0004 68.0767 36.4905 68.2506C36.0572 68.3984 35.6064 68.4953 35.1014 68.6334C35.3806 69.5684 35.7103 70.4349 36.2013 71.2236C36.6131 71.8799 37.2407 72.2179 38.0122 72.1938C38.4737 72.1786 38.9399 72.0936 39.3854 71.9814C40.0826 71.8062 40.7607 71.5749 41.4492 71.3741C42.3401 71.1157 42.6247 71.1325 42.4215 69.8529C42.4018 69.7116 42.3599 69.5722 42.3231 69.4311C41.6299 67.0152 41.0251 64.5749 40.2298 62.1939C38.1241 55.8545 35.913 49.5568 33.792 43.2227C32.5148 39.4123 31.3175 35.5691 30.0812 31.7448C28.7456 27.6129 27.4134 23.4742 26.0676 19.3458C25.4791 17.5374 24.8804 15.7324 24.2749 13.9241C24.153 13.5502 24.0039 13.1799 23.8617 12.8129C23.605 12.1606 23.1157 11.8608 22.4262 11.9253C22.0738 11.9601 21.7061 12.0001 21.3765 12.1183C20.0307 12.6115 18.6954 13.1354 17.3551 13.661C16.6466 13.9368 16.5354 14.1113 16.6328 14.8806C16.7286 15.6619 16.8227 16.4551 17.0086 17.2169C17.1824 17.9431 17.4157 18.6604 17.8174 19.3373C19.0177 19.2522 20.1697 19.0584 21.3312 18.776C21.542 19.1936 21.4062 19.5131 21.0635 19.7097C20.6902 19.9167 20.2892 20.0763 19.8813 20.1984C19.3747 20.3484 18.8472 20.4373 18.3404 20.5533C18.441 21.2987 19.0379 23.0986 19.4628 23.9269Z" fill="white"/>
</g>
<g clip-path="url(#clip5_1_5086)">
<path d="M211.216 9.00024C211.493 9.2666 211.711 9.47968 211.977 9.73538C211.727 10.2841 211.525 10.8115 211.253 11.3016C210.283 13.0382 209.282 14.7482 208.318 16.4848C207.716 17.5662 207.151 18.6743 206.576 19.7716C206.496 19.9261 206.453 20.0966 206.373 20.315C206.608 20.4855 206.821 20.6613 207.055 20.8051C208.813 21.8759 210.486 23.0745 212.095 24.3583C212.18 24.4222 212.26 24.4915 212.34 24.5607C213.485 25.4716 213.309 25.8659 213.016 26.9739C212.947 27.2296 212.75 27.48 212.553 27.6664C212.164 28.0287 211.748 28.3643 211.317 28.6732C208.637 30.6016 205.963 32.5301 203.268 34.4318C201.526 35.6624 199.672 36.7065 197.775 37.6707C197.365 37.8785 196.939 38.0596 196.508 38.2247C195.916 38.4538 195.405 38.3473 195 37.7879C195.016 37.3831 195.256 37.0634 195.474 36.7491C197.237 34.2188 198.942 31.6458 200.913 29.2645C201.792 28.2045 202.612 27.0964 203.422 26.0576C203.358 25.6954 203.103 25.6901 202.927 25.6208C202.298 25.3758 201.654 25.1733 201.025 24.9336C200.332 24.6673 199.64 24.3849 198.958 24.0866C198.67 23.9587 198.388 23.7936 198.132 23.6125C197.328 23.0425 197.173 22.1848 197.775 21.4071C198.122 20.9596 198.532 20.5601 198.947 20.1765C200.663 18.5837 202.394 17.0069 204.104 15.4087C204.514 15.0252 204.871 14.5777 205.271 14.1835C205.926 13.5336 206.592 12.8944 207.263 12.2658C207.934 11.6372 208.627 11.0245 209.298 10.3906C209.852 9.87389 210.465 9.46903 211.216 9.00024ZM209.697 11.8556C208.259 13.3844 206.634 14.7109 205.079 16.1013C203.598 17.4277 202.101 18.7382 200.636 20.0806C200.034 20.6293 199.475 21.2313 198.915 21.8226C198.676 22.073 198.441 22.3446 198.473 22.7921C198.756 22.9306 199.033 23.0798 199.326 23.197C200.705 23.7563 202.09 24.305 203.475 24.859C203.704 24.9496 203.939 25.0402 204.147 25.1733C205.095 25.7806 205.164 26.1802 204.493 27.0591C204.408 27.171 204.312 27.2775 204.221 27.3894C203.326 28.4442 202.442 29.5149 201.531 30.5537C199.773 32.5567 198.186 34.6929 196.598 36.829C196.492 36.9675 196.252 37.1167 196.486 37.3671C196.678 37.2765 196.875 37.1913 197.067 37.1007C198.415 36.4508 199.699 35.689 200.918 34.8367C204.264 32.4981 207.588 30.1329 210.923 27.7783C211.099 27.6558 211.264 27.5226 211.429 27.3894C211.562 27.2775 211.7 27.155 211.818 27.0218C212.228 26.5637 212.297 26.2015 211.983 25.6634C211.77 25.3065 211.503 24.9443 211.173 24.6992C210.262 24.028 209.319 23.3887 208.36 22.7868C207.551 22.2754 206.682 21.8545 205.873 21.3485C204.786 20.6666 204.727 20.3896 205.297 19.2709C205.425 19.0205 205.553 18.7648 205.702 18.5198C206.336 17.4916 206.959 16.4582 207.615 15.446C208.36 14.2954 209.122 13.1394 209.697 11.8556Z" fill="white"/>
<path d="M207.344 27.2457C207.381 27.1338 207.386 27.0326 207.445 26.9634C207.924 26.3721 208.564 25.9832 209.208 25.6103C209.453 25.4664 209.741 25.4132 209.975 25.6689C209.97 25.7435 209.986 25.8447 209.954 25.8713C209.192 26.4573 208.052 27.0593 207.344 27.2457Z" fill="white"/>
<path d="M210.928 26.436C210.928 26.5105 210.955 26.6118 210.923 26.6331C210.193 27.1711 209.346 27.4641 208.43 27.9062C208.893 27.251 209.229 27.0006 210.161 26.5532C210.406 26.4413 210.64 26.2495 210.928 26.436Z" fill="white"/>
<path d="M208.303 25.2161C207.53 25.8927 207.333 25.9939 206.443 26.143C206.534 25.9939 206.577 25.866 206.662 25.7968C207.013 25.5091 207.376 25.2321 207.743 24.9604C207.876 24.8645 207.908 24.8858 208.303 25.2161Z" fill="white"/>
</g>
<g clip-path="url(#clip6_1_5086)">
<path d="M15.0092 101.735C15.0092 101.38 14.9856 101.064 15.014 100.756C15.2503 98.246 15.4914 95.7404 15.7373 93.2302C15.8034 92.5731 15.8791 91.9159 15.9736 91.2636C16.0493 90.7388 16.3046 90.2944 16.7584 90.025C17.1886 89.7697 17.6377 89.5144 18.1152 89.3868C19.0276 89.1457 19.9541 88.9329 20.8854 88.8242C23.1735 88.5642 25.471 88.55 27.7733 88.7155C29.9763 88.8715 32.1651 89.1268 34.3303 89.5475C36.9303 90.0533 39.4548 90.8286 41.8989 91.8592C42.7735 92.228 43.6008 92.6818 44.3571 93.2585C44.5321 93.3909 44.7448 93.4713 44.9197 93.5989C45.3263 93.892 45.747 94.1709 46.1157 94.5113C46.962 95.2913 47.1038 96.2983 46.9336 97.3761C46.7445 98.5864 46.5554 99.8013 46.3427 101.007C46.111 102.34 45.8747 103.673 45.6005 105.001C45.4255 105.829 45.175 106.642 44.9575 107.469C44.4848 107.767 43.9411 107.8 43.4164 107.852C41.7192 108.018 40.0268 108.046 38.3202 107.975C35.5121 107.862 32.7324 107.54 29.9621 107.096C27.5653 106.713 25.2205 106.084 22.9135 105.342C21.3582 104.841 19.8218 104.269 18.2901 103.701C17.0704 103.248 16.0256 102.496 15.0092 101.735ZM45.3121 98.7849C45.0332 98.8038 44.8819 98.8133 44.7306 98.8275C43.6669 98.9362 42.608 99.1016 41.5396 99.1442C39.2988 99.2387 37.0674 99.0402 34.855 98.7329C32.2407 98.3736 29.6312 97.934 27.0311 97.4565C24.8659 97.0594 22.7291 96.511 20.6443 95.7877C19.297 95.3197 18.0301 94.7004 16.9617 93.7313C16.9286 93.7029 16.8435 93.7266 16.7726 93.7266C16.4464 96.3314 16.1202 98.9409 15.794 101.541C16.4275 102.028 16.5456 102.075 17.2122 102.141C17.2359 102.056 17.2595 101.966 17.2879 101.881C17.581 100.983 17.8504 100.075 18.361 99.2718C18.4272 99.1678 18.5643 99.1111 18.8101 98.922C18.5359 100.227 18.2286 101.338 17.8693 102.477C18.3043 102.69 18.7486 102.869 19.3017 102.921C19.2166 102 19.4767 101.186 19.713 100.373C19.8312 99.9573 20.0487 99.5649 20.2378 99.1678C20.2756 99.0875 20.3985 99.0496 20.4978 98.9787C20.5309 99.0733 20.5545 99.1064 20.5451 99.13C20.3134 100.175 20.0392 101.21 20.0156 102.288C20.0109 102.439 19.9589 102.595 19.8974 102.742C19.8454 102.865 19.7556 102.969 19.661 103.106C19.921 103.205 20.1243 103.29 20.3323 103.356C21.2305 103.645 22.1335 103.924 23.0317 104.207C25.8303 105.091 28.6904 105.668 31.6073 106.018C33.3895 106.231 35.1765 106.368 36.9682 106.458C39.2373 106.576 41.5018 106.486 43.7615 106.306C43.9979 106.287 44.2768 106.33 44.5084 105.971C44.2106 105.162 44.3619 104.259 44.4659 103.356C44.5321 102.794 44.6408 102.236 44.7448 101.683C44.9292 100.756 45.1088 99.8344 45.3121 98.7849ZM35.9187 91.1028C35.5499 91.0177 35.1859 90.9279 34.8172 90.857C32.7135 90.441 30.5909 90.1857 28.4493 90.0297C25.9911 89.8548 23.5375 89.8784 21.0887 90.1573C20.1858 90.2613 19.2923 90.4741 18.4083 90.6963C17.9875 90.805 17.5999 91.0366 17.2075 91.2399C17.0751 91.3061 16.9522 91.4337 16.8813 91.5661C16.6827 91.9443 16.8151 92.5967 17.1602 92.8378C17.5951 93.1451 18.0442 93.4429 18.5123 93.6982C19.3159 94.1378 20.1905 94.412 21.0698 94.6579C23.5612 95.3528 26.0951 95.835 28.6384 96.2699C32.0564 96.8514 35.4743 97.395 38.9395 97.57C40.1355 97.6314 41.3316 97.6125 42.5276 97.6172C42.7545 97.6172 43.0051 97.622 43.2367 97.3525C42.8727 97.2532 42.5702 97.1729 42.2723 97.0925C38.7693 96.1659 35.3467 94.9888 31.9004 93.8778C31.7207 93.8211 31.5458 93.7455 31.3803 93.6604C30.884 93.4004 30.7989 93.1876 30.9029 92.4407C32.5244 91.9207 34.2452 91.7032 35.9187 91.1028ZM31.9524 93.0363C32.5669 93.2302 33.0113 93.3767 33.4604 93.5091C37.318 94.6579 41.2039 95.7073 45.0143 96.9979C45.0757 97.0168 45.1277 97.0499 45.1892 97.0641C45.5721 97.1539 45.8132 97.0168 45.9739 96.6197C46.0401 96.4543 46.1016 96.2888 46.1819 96.0761C45.9172 95.8255 45.6714 95.5797 45.4114 95.3575C45.0757 95.0739 44.7306 94.795 44.3761 94.5397C42.9909 93.5375 41.497 92.748 39.8803 92.1854C38.7693 91.7978 37.6678 91.4621 36.5096 91.9869C36.4529 92.0105 36.3867 92.0105 36.3252 92.0199C35.1576 92.261 33.9852 92.5021 32.8175 92.7527C32.5764 92.8047 32.3495 92.904 31.9524 93.0363Z" fill="white"/>
</g>
<defs>
<clipPath id="clip0_1_5086">
<rect width="81.6139" height="39.4794" fill="white" transform="translate(82 68.252) rotate(-10.0568)"/>
</clipPath>
<clipPath id="clip1_1_5086">
<rect width="23.1186" height="24.5755" fill="white" transform="translate(190.691 80.936) rotate(11.5419)"/>
</clipPath>
<clipPath id="clip2_1_5086">
<rect width="31.54" height="41.6773" fill="white" transform="translate(125 23.2373) rotate(-20.8719)"/>
</clipPath>
<clipPath id="clip3_1_5086">
<rect width="43.2264" height="44.3417" fill="white" transform="translate(55.3867 15.0002)"/>
</clipPath>
<clipPath id="clip4_1_5086">
<rect width="11" height="63.8399" fill="white" transform="translate(14.291 13.9377) rotate(-18.837)"/>
</clipPath>
<clipPath id="clip5_1_5086">
<rect width="18.24" height="29.3364" fill="white" transform="translate(195 9.00024)"/>
</clipPath>
<clipPath id="clip6_1_5086">
<rect width="32" height="19.4061" fill="white" transform="translate(15 88.6067)"/>
</clipPath>
</defs>
</svg>
